<svg xmlns="http://www.w3.org/2000/svg" xmlns:xlink="http://www.w3.org/1999/xlink" width="500" zoomAndPan="magnify" viewBox="0 0 375 374.999991" height="500" preserveAspectRatio="xMidYMid meet" version="1.0"><defs><clipPath id="c450948437"><path d="M 14 90 L 354 90 L 354 319 L 14 319 Z M 14 90 " clip-rule="nonzero"/></clipPath><clipPath id="2d66cb755f"><path d="M 2.875 180.207031 L 303.035156 43.082031 L 372.222656 194.527344 L 72.0625 331.652344 Z M 2.875 180.207031 " clip-rule="nonzero"/></clipPath><clipPath id="dcfc7d39ce"><path d="M 2.875 180.207031 L 303.035156 43.082031 L 372.222656 194.527344 L 72.0625 331.652344 Z M 2.875 180.207031 " clip-rule="nonzero"/></clipPath><clipPath id="f82fd7341d"><path d="M 2.875 180.207031 L 303.035156 43.082031 L 372.222656 194.527344 L 72.0625 331.652344 Z M 2.875 180.207031 " clip-rule="nonzero"/></clipPath></defs><g clip-path="url(#c450948437)"><g clip-path="url(#2d66cb755f)"><g clip-path="url(#dcfc7d39ce)"><g clip-path="url(#f82fd7341d)"><path fill="#000000" d="M 350.460938 154.914062 C 346.695312 150.152344 343.597656 144.964844 340.710938 139.742188 C 337.828125 134.503906 335.191406 129.1875 332.550781 123.925781 C 329.910156 118.667969 327.289062 113.441406 324.390625 108.476562 C 322.289062 104.894531 320.039062 101.414062 317.449219 98.367188 C 316.179688 103.285156 314.851562 108.1875 313.464844 113.078125 C 312.707031 115.527344 310.023438 114.96875 310.320312 112.421875 C 311.253906 105.761719 312.292969 99.121094 313.429688 92.496094 C 313.671875 91.074219 315.023438 90.117188 316.449219 90.359375 C 316.890625 90.433594 317.285156 90.613281 317.613281 90.871094 L 317.765625 90.988281 C 320.304688 92.984375 322.492188 95.289062 324.449219 97.707031 C 326.40625 100.132812 328.136719 102.675781 329.734375 105.269531 C 332.921875 110.464844 335.59375 115.851562 338.101562 121.25 C 340.605469 126.65625 342.925781 132.089844 345.3125 137.453125 C 347.710938 142.808594 350.140625 148.121094 353.078125 153.113281 C 354.101562 154.925781 351.902344 156.609375 350.460938 154.914062 Z M 254.941406 153.222656 C 266.039062 149.296875 276.078125 144.457031 286.453125 139.214844 C 287.167969 138.789062 286.417969 136.132812 285.558594 136.175781 C 279.597656 136.847656 273.785156 138.519531 268.371094 140.96875 C 262.953125 143.417969 257.921875 146.636719 253.351562 150.429688 C 252.613281 151.125 253.980469 153.492188 254.941406 153.222656 Z M 292.527344 149.042969 C 292.007812 149.421875 291.296875 149.742188 290.675781 150.085938 C 289.996094 150.40625 289.3125 150.722656 288.621094 151.03125 L 286.492188 151.933594 L 284.332031 152.820312 C 281.4375 154.003906 278.503906 155.210938 275.613281 156.550781 C 272.71875 157.894531 269.847656 159.339844 267.042969 160.988281 C 264.246094 162.644531 261.496094 164.46875 258.964844 166.679688 C 258.136719 167.476562 259.699219 169.726562 260.691406 169.382812 C 263.5625 168.1875 266.523438 167.121094 269.460938 165.96875 C 272.40625 164.824219 275.355469 163.625 278.257812 162.273438 C 281.164062 160.921875 284.039062 159.457031 286.839844 157.734375 C 287.539062 157.304688 288.230469 156.84375 288.917969 156.390625 C 289.605469 155.929688 290.285156 155.417969 290.953125 154.921875 C 291.625 154.398438 292.28125 153.847656 292.925781 153.277344 C 293.5625 152.636719 294.191406 152.078125 294.765625 151.289062 C 295.402344 150.375 293.1875 148.699219 292.527344 149.042969 Z M 112.726562 303.433594 C 115.042969 306.414062 113.105469 308.359375 110.277344 305.519531 C 106.492188 301.488281 103.226562 296.914062 100.523438 292.0625 C 99.785156 290.738281 99.085938 289.394531 98.417969 288.039062 C 98.367188 288.59375 98.308594 289.152344 98.25 289.710938 C 97.753906 294.210938 97.054688 298.699219 95.929688 303.191406 C 95.363281 305.441406 94.683594 307.6875 93.742188 309.945312 C 93.265625 311.074219 92.71875 312.207031 92.023438 313.339844 C 91.3125 314.464844 90.496094 315.621094 89.199219 316.671875 C 88.570312 317.195312 87.78125 317.679688 86.871094 318.011719 C 85.96875 318.355469 84.917969 318.507812 83.941406 318.425781 C 83.4375 318.410156 82.992188 318.296875 82.527344 318.199219 C 82.113281 318.0625 81.65625 317.933594 81.292969 317.75 L 80.726562 317.484375 L 80.214844 317.1875 C 79.863281 316.988281 79.578125 316.769531 79.277344 316.554688 C 78.105469 315.675781 77.199219 314.71875 76.378906 313.753906 C 75.558594 312.785156 74.863281 311.792969 74.203125 310.792969 C 73.882812 310.292969 73.554688 309.789062 73.257812 309.285156 L 72.808594 308.527344 L 72.355469 307.65625 C 72.210938 307.367188 72.050781 307.078125 71.917969 306.78125 L 71.554688 305.886719 C 71.292969 305.292969 71.109375 304.683594 70.925781 304.078125 C 70.199219 301.648438 69.882812 299.183594 69.839844 296.753906 C 69.773438 291.890625 70.742188 287.132812 72.625 282.710938 C 73.578125 280.507812 74.777344 278.382812 76.300781 276.453125 C 77.824219 274.527344 79.691406 272.78125 81.941406 271.535156 C 84.171875 270.28125 86.8125 269.609375 89.378906 269.746094 C 91.953125 269.863281 94.351562 270.726562 96.425781 271.90625 C 97.203125 272.335938 97.625 272.898438 97.84375 273.351562 C 97.953125 273.589844 98 273.8125 97.988281 274.015625 C 98.34375 274.328125 98.625 274.726562 98.777344 275.183594 C 100.472656 280.253906 102.28125 285.238281 104.527344 289.996094 C 106.761719 294.753906 109.46875 299.273438 112.726562 303.433594 Z M 93.496094 276.144531 L 93.496094 276 C 93.507812 275.378906 93.730469 274.8125 94.089844 274.359375 C 92.515625 273.753906 90.886719 273.421875 89.316406 273.484375 C 87.445312 273.550781 85.675781 274.160156 84.117188 275.1875 C 80.980469 277.253906 78.753906 280.824219 77.371094 284.609375 C 75.984375 288.417969 75.359375 292.5625 75.574219 296.546875 C 75.6875 298.535156 76.019531 300.488281 76.621094 302.285156 C 76.769531 302.734375 76.917969 303.183594 77.121094 303.597656 L 77.394531 304.234375 C 77.492188 304.441406 77.613281 304.632812 77.71875 304.832031 L 78.042969 305.429688 L 78.457031 306.089844 C 78.730469 306.535156 79.019531 306.953125 79.304688 307.378906 C 79.882812 308.210938 80.476562 309.023438 81.101562 309.730469 C 81.722656 310.441406 82.371094 311.082031 82.984375 311.523438 C 83.589844 311.957031 84.144531 312.183594 84.371094 312.160156 C 84.5 312.171875 84.570312 312.164062 84.703125 312.105469 C 84.832031 312.054688 85.015625 311.96875 85.234375 311.777344 C 85.671875 311.4375 86.191406 310.777344 86.652344 310.03125 C 87.117188 309.277344 87.542969 308.410156 87.933594 307.5 C 88.707031 305.667969 89.339844 303.671875 89.882812 301.632812 C 90.964844 297.542969 91.730469 293.273438 92.335938 288.988281 C 92.632812 286.839844 92.890625 284.683594 93.09375 282.53125 C 93.292969 280.386719 93.460938 278.203125 93.496094 276.144531 Z M 27.617188 190.042969 C 31.175781 191.535156 34.714844 193.140625 38.265625 194.757812 C 37.503906 198.988281 36.863281 203.226562 36.28125 207.457031 C 35.644531 211.960938 35.128906 216.492188 34.308594 220.859375 C 34.074219 222.304688 36.621094 223.316406 37.371094 221.839844 C 39.277344 217.464844 40.5625 212.992188 41.722656 208.515625 C 42.660156 204.832031 43.453125 201.136719 44.167969 197.441406 C 51.109375 200.585938 58.148438 203.6875 65.433594 206.363281 C 66.933594 206.84375 68.148438 204.390625 66.875 203.488281 C 59.941406 198.992188 52.84375 194.699219 45.328125 191.074219 C 45.867188 187.898438 46.367188 184.722656 46.867188 181.5625 C 47.222656 179.328125 47.578125 177.101562 47.984375 174.90625 C 48.394531 172.730469 48.832031 170.515625 49.539062 168.632812 C 49.871094 167.714844 47.796875 165.820312 46.765625 167.097656 C 45.320312 169.269531 44.445312 171.480469 43.605469 173.699219 C 42.785156 175.917969 42.097656 178.152344 41.472656 180.394531 C 40.726562 183.070312 40.085938 185.753906 39.507812 188.441406 C 36.242188 187.066406 32.894531 185.839844 29.453125 184.835938 C 24.902344 183.527344 20.152344 182.546875 15.261719 182.613281 C 13.863281 182.679688 13.792969 185.445312 14.988281 185.769531 C 19.289062 186.699219 23.46875 188.320312 27.617188 190.042969 Z M 146.015625 203.304688 C 143.429688 204.503906 140.796875 205.609375 138.175781 206.796875 C 136.929688 207.359375 135.683594 207.9375 134.445312 208.535156 C 133.867188 207.019531 133.261719 205.5 132.609375 203.992188 C 131.179688 200.695312 129.535156 197.410156 127.472656 194.359375 C 126.847656 193.511719 124.394531 194.785156 124.621094 195.746094 C 126.191406 200.871094 127.378906 206.117188 128.953125 211.382812 C 126.875 212.542969 124.828125 213.800781 122.835938 215.1875 C 120.402344 216.898438 118.027344 218.792969 115.921875 221.046875 C 115.242188 221.859375 117 223.960938 117.878906 223.59375 C 120.398438 222.324219 123.007812 221.191406 125.605469 219.984375 C 127.394531 219.15625 129.1875 218.300781 130.964844 217.398438 C 132.066406 220.328125 133.367188 223.230469 135.003906 226.007812 C 136.890625 229.210938 139.257812 232.253906 142.1875 234.652344 C 143.214844 235.4375 145.109375 233.453125 144.546875 232.46875 C 142.664062 229.667969 141.238281 226.648438 139.964844 223.527344 C 138.75 220.546875 137.675781 217.46875 136.566406 214.347656 C 138.03125 213.484375 139.476562 212.570312 140.890625 211.597656 C 143.332031 209.910156 145.710938 208.050781 147.863281 205.882812 C 148.445312 205.222656 146.777344 203.023438 146.015625 203.304688 Z M 236.121094 225.140625 C 235.132812 224.84375 234.152344 224.636719 233.15625 224.40625 C 232.148438 224.246094 231.167969 224.023438 230.117188 223.953125 C 228.058594 223.722656 225.867188 223.703125 223.582031 224.214844 C 223.015625 224.3125 222.4375 224.539062 221.867188 224.707031 C 221.296875 224.894531 220.734375 225.199219 220.175781 225.453125 C 219.632812 225.765625 219.085938 226.109375 218.578125 226.488281 C 218.097656 226.910156 217.566406 227.292969 217.164062 227.789062 C 215.421875 229.691406 214.429688 232.035156 213.988281 234.21875 C 213.523438 236.421875 213.46875 238.550781 213.578125 240.605469 C 213.582031 240.617188 213.582031 240.628906 213.582031 240.644531 C 212.082031 238.34375 210.605469 236.035156 209.175781 233.703125 C 206.972656 230.105469 204.875 226.453125 202.972656 222.71875 C 201.078125 218.980469 199.371094 215.15625 198.089844 211.203125 C 197.109375 208.179688 194.378906 208.664062 195.03125 212.042969 C 196.007812 216.332031 197.46875 220.46875 199.148438 224.484375 C 200.835938 228.5 202.753906 232.398438 204.800781 236.210938 C 208.894531 243.839844 213.523438 251.125 218.136719 258.304688 C 218.894531 259.480469 220.394531 260.015625 221.757812 259.503906 C 223.328125 258.914062 224.125 257.164062 223.539062 255.597656 L 223.507812 255.523438 C 222.261719 252.191406 221.222656 248.75 220.546875 245.332031 C 219.882812 241.933594 219.5625 238.441406 220.15625 235.523438 C 220.441406 234.0625 221.019531 232.878906 221.785156 232.015625 C 222.539062 231.136719 223.609375 230.566406 224.972656 230.234375 C 225.328125 230.175781 225.65625 230.070312 226.03125 230.035156 L 227.15625 229.925781 L 228.339844 229.917969 C 228.730469 229.902344 229.152344 229.96875 229.558594 229.984375 C 230.367188 230.011719 231.214844 230.1875 232.050781 230.289062 C 232.875 230.460938 233.722656 230.609375 234.527344 230.824219 C 236.148438 231.230469 237.652344 231.816406 238.949219 232.550781 C 240.242188 233.292969 241.234375 234.226562 241.792969 235.308594 C 242.363281 236.382812 242.558594 237.675781 242.367188 239.117188 C 242.175781 240.554688 241.609375 242.082031 240.832031 243.542969 C 239.253906 246.472656 236.949219 249.191406 234.335938 251.554688 C 233.019531 252.734375 231.625 253.839844 230.164062 254.847656 C 228.691406 255.839844 227.15625 256.742188 225.5625 257.519531 C 225.140625 257.722656 224.785156 257.941406 224.496094 258.167969 C 224.199219 258.378906 223.960938 258.59375 223.785156 258.808594 C 223.433594 259.242188 223.3125 259.679688 223.425781 260.035156 C 223.535156 260.386719 223.882812 260.660156 224.460938 260.769531 C 224.75 260.824219 225.097656 260.839844 225.496094 260.800781 C 225.886719 260.75 226.332031 260.640625 226.824219 260.472656 C 228.648438 259.773438 230.410156 258.929688 232.113281 257.972656 C 233.800781 257 235.425781 255.910156 236.976562 254.714844 C 238.535156 253.523438 239.992188 252.1875 241.359375 250.742188 C 242.71875 249.292969 243.984375 247.714844 245.066406 245.953125 C 246.136719 244.191406 247.046875 242.230469 247.484375 239.992188 C 247.925781 237.777344 247.789062 235.191406 246.714844 232.914062 C 245.664062 230.625 243.839844 228.886719 241.96875 227.707031 C 240.074219 226.523438 238.089844 225.710938 236.121094 225.140625 Z M 152.09375 136.609375 C 153.140625 137.746094 154.441406 138.785156 155.972656 139.480469 C 157.496094 140.179688 159.210938 140.515625 160.851562 140.5 C 161.679688 140.5 162.46875 140.40625 163.265625 140.269531 L 164.457031 139.992188 L 165.644531 139.585938 C 167.207031 138.964844 168.675781 137.960938 169.828125 136.742188 C 170.988281 135.527344 171.851562 134.136719 172.5 132.738281 C 173.785156 129.925781 174.34375 127.082031 174.6875 124.324219 C 174.792969 123.433594 174.871094 122.542969 174.933594 121.664062 C 175.488281 122.609375 176.046875 123.542969 176.605469 124.472656 C 179.402344 129.109375 182.273438 133.59375 184.394531 138.222656 C 186.492188 142.808594 187.761719 147.703125 186.015625 151.824219 C 185.152344 153.878906 183.597656 155.722656 181.691406 157.300781 L 180.207031 158.445312 L 178.597656 159.472656 C 178.074219 159.835938 177.480469 160.109375 176.917969 160.425781 C 176.339844 160.722656 175.792969 161.070312 175.1875 161.320312 C 172.097656 162.808594 172.90625 165.433594 176.4375 164.277344 C 177.105469 164.070312 177.738281 163.757812 178.390625 163.496094 C 179.035156 163.210938 179.699219 162.972656 180.324219 162.625 L 182.226562 161.632812 L 184.066406 160.460938 C 186.460938 158.800781 188.722656 156.609375 190.179688 153.761719 C 191.667969 150.921875 192.035156 147.59375 191.746094 144.574219 C 191.453125 141.527344 190.578125 138.703125 189.527344 136.046875 C 187.390625 130.746094 184.5625 126.015625 181.902344 121.351562 C 180.566406 119.023438 179.246094 116.722656 178.070312 114.414062 C 176.890625 112.109375 175.839844 109.789062 175.121094 107.492188 L 175.109375 107.449219 C 174.738281 106.265625 173.675781 105.363281 172.359375 105.257812 C 170.625 105.117188 169.105469 106.410156 168.960938 108.140625 C 168.835938 109.640625 168.835938 110.984375 168.835938 112.316406 L 168.871094 116.21875 C 168.886719 118.773438 168.851562 121.269531 168.632812 123.679688 C 168.40625 126.082031 167.976562 128.410156 167.167969 130.367188 C 166.351562 132.339844 165.167969 133.765625 163.507812 134.53125 C 162.695312 134.921875 161.660156 135.152344 160.707031 135.222656 C 159.75 135.289062 158.84375 135.167969 157.976562 134.84375 C 156.242188 134.203125 154.679688 132.636719 153.476562 130.691406 C 152.261719 128.742188 151.371094 126.457031 150.730469 124.09375 C 150.09375 121.726562 149.6875 119.257812 149.554688 116.796875 C 149.457031 115.390625 148.804688 114.628906 148.054688 114.554688 C 147.328125 114.484375 146.492188 115.210938 146.382812 116.796875 C 146.257812 119.527344 146.449219 122.242188 146.929688 124.945312 C 147.421875 127.640625 148.199219 130.335938 149.539062 132.917969 C 150.214844 134.203125 151.039062 135.460938 152.09375 136.609375 Z M 221.507812 172.253906 C 219.722656 173.296875 217.65625 174.253906 215.601562 175.160156 C 214.578125 175.625 213.542969 176.074219 212.5 176.527344 L 209.378906 177.882812 C 205.210938 179.695312 201.046875 181.542969 196.910156 183.476562 C 188.636719 187.339844 180.488281 191.550781 172.570312 196.289062 C 171.265625 197.140625 172.402344 199.628906 173.902344 199.210938 C 182.652344 196.367188 191.242188 193.089844 199.582031 189.1875 C 203.75 187.234375 207.855469 185.125 211.871094 182.804688 C 212.875 182.226562 213.875 181.636719 214.863281 181.019531 C 215.851562 180.410156 216.835938 179.785156 217.808594 179.121094 C 218.785156 178.484375 219.75 177.789062 220.699219 177.078125 C 221.175781 176.738281 221.648438 176.34375 222.117188 175.953125 C 222.582031 175.566406 223.046875 175.199219 223.507812 174.710938 C 224.546875 173.589844 222.472656 171.738281 221.507812 172.253906 Z M 89.058594 232.292969 C 80.222656 234.867188 71.535156 237.878906 63.082031 241.523438 C 58.855469 243.347656 54.6875 245.332031 50.605469 247.527344 C 49.582031 248.074219 48.566406 248.632812 47.558594 249.222656 C 46.550781 249.800781 45.546875 250.394531 44.554688 251.027344 C 43.5625 251.632812 42.578125 252.300781 41.605469 252.980469 C 41.117188 253.304688 40.632812 253.6875 40.15625 254.0625 C 39.675781 254.433594 39.199219 254.789062 38.722656 255.261719 C 37.652344 256.351562 39.671875 258.265625 40.652344 257.777344 C 42.464844 256.789062 44.5625 255.898438 46.640625 255.054688 C 47.675781 254.621094 48.730469 254.203125 49.785156 253.785156 L 52.941406 252.519531 C 57.164062 250.839844 61.382812 249.121094 65.578125 247.3125 C 73.964844 243.703125 82.238281 239.746094 90.300781 235.253906 C 91.628906 234.441406 90.566406 231.917969 89.058594 232.292969 Z M 89.058594 232.292969 " fill-opacity="1" fill-rule="nonzero"/></g></g></g></g></svg>