<svg xmlns="http://www.w3.org/2000/svg" xmlns:xlink="http://www.w3.org/1999/xlink" width="500" zoomAndPan="magnify" viewBox="0 0 375 374.999991" height="500" preserveAspectRatio="xMidYMid meet" version="1.0"><defs><g/></defs><g fill="#000000" fill-opacity="1"><g transform="translate(7.180277, 176.460607)"><g><path d="M 12.125 9.125 L 20.28125 -1.703125 C 21.519531 -3.359375 22.148438 -4.671875 22.171875 -5.640625 C 22.203125 -6.617188 21.628906 -7.546875 20.453125 -8.421875 C 19.234375 -9.335938 17.921875 -9.597656 16.515625 -9.203125 C 15.109375 -8.804688 13.773438 -7.765625 12.515625 -6.078125 L 5.0625 3.8125 L 2.25 1.6875 L 12.359375 -11.75 C 13.859375 -13.726562 14.738281 -14.96875 15 -15.46875 L 17.6875 -13.4375 C 17.65625 -13.382812 17.554688 -13.234375 17.390625 -12.984375 C 17.234375 -12.742188 17.050781 -12.46875 16.84375 -12.15625 C 16.632812 -11.84375 16.222656 -11.265625 15.609375 -10.421875 L 15.65625 -10.390625 C 17.1875 -11.148438 18.519531 -11.46875 19.65625 -11.34375 C 20.800781 -11.226562 21.945312 -10.738281 23.09375 -9.875 C 24.382812 -8.90625 25.210938 -7.878906 25.578125 -6.796875 C 25.941406 -5.710938 25.84375 -4.492188 25.28125 -3.140625 L 25.328125 -3.109375 C 26.785156 -3.804688 28.125 -4.09375 29.34375 -3.96875 C 30.5625 -3.851562 31.765625 -3.347656 32.953125 -2.453125 C 34.671875 -1.160156 35.570312 0.25 35.65625 1.78125 C 35.738281 3.3125 34.976562 5.144531 33.375 7.28125 L 24.796875 18.671875 L 22 16.5625 L 30.15625 5.734375 C 31.394531 4.078125 32.023438 2.757812 32.046875 1.78125 C 32.078125 0.8125 31.5 -0.113281 30.3125 -1 C 29.070312 -1.9375 27.757812 -2.203125 26.375 -1.796875 C 24.988281 -1.398438 23.65625 -0.351562 22.375 1.34375 L 14.921875 11.234375 Z M 12.125 9.125 "/></g></g></g><g fill="#000000" fill-opacity="1"><g transform="translate(36.461806, 197.57935)"><g><path d="M 7.171875 3.984375 C 5.234375 3.023438 4.03125 1.800781 3.5625 0.3125 C 3.101562 -1.175781 3.316406 -2.804688 4.203125 -4.578125 C 5.179688 -6.554688 6.582031 -7.753906 8.40625 -8.171875 C 10.238281 -8.597656 12.625 -8.128906 15.5625 -6.765625 L 19.90625 -4.703125 L 20.421875 -5.75 C 21.191406 -7.300781 21.410156 -8.578125 21.078125 -9.578125 C 20.753906 -10.578125 19.890625 -11.425781 18.484375 -12.125 C 17.054688 -12.832031 15.894531 -13.109375 15 -12.953125 C 14.101562 -12.796875 13.328125 -12.21875 12.671875 -11.21875 L 9.5 -13.15625 C 11.75 -16.332031 15.164062 -16.785156 19.75 -14.515625 C 22.15625 -13.328125 23.691406 -11.878906 24.359375 -10.171875 C 25.023438 -8.460938 24.835938 -6.5625 23.796875 -4.46875 L 19.71875 3.78125 C 19.25 4.71875 19.019531 5.488281 19.03125 6.09375 C 19.039062 6.695312 19.394531 7.171875 20.09375 7.515625 C 20.40625 7.671875 20.769531 7.796875 21.1875 7.890625 L 20.21875 9.875 C 19.3125 9.675781 18.445312 9.375 17.625 8.96875 C 16.4375 8.375 15.726562 7.628906 15.5 6.734375 C 15.269531 5.847656 15.445312 4.726562 16.03125 3.375 L 15.921875 3.3125 C 14.390625 4.382812 12.929688 4.953125 11.546875 5.015625 C 10.160156 5.085938 8.703125 4.742188 7.171875 3.984375 Z M 9.046875 1.953125 C 10.222656 2.535156 11.394531 2.785156 12.5625 2.703125 C 13.738281 2.617188 14.816406 2.242188 15.796875 1.578125 C 16.785156 0.910156 17.523438 0.0859375 18.015625 -0.890625 L 18.796875 -2.46875 L 15.265625 -4.109375 C 13.765625 -4.847656 12.554688 -5.265625 11.640625 -5.359375 C 10.722656 -5.453125 9.910156 -5.304688 9.203125 -4.921875 C 8.503906 -4.535156 7.914062 -3.863281 7.4375 -2.90625 C 6.925781 -1.863281 6.804688 -0.921875 7.078125 -0.078125 C 7.359375 0.765625 8.015625 1.441406 9.046875 1.953125 Z M 9.046875 1.953125 "/></g></g></g><g fill="#000000" fill-opacity="1"><g transform="translate(58.073142, 207.848302)"><g><path d="M 10.34375 3.59375 C 9.132812 3.488281 7.953125 3.226562 6.796875 2.8125 C 4.117188 1.832031 3.332031 -0.175781 4.4375 -3.21875 L 9.3125 -16.625 L 7 -17.46875 L 7.875 -19.890625 L 10.328125 -19 L 12.953125 -23.125 L 15.171875 -22.3125 L 13.53125 -17.828125 L 17.25 -16.46875 L 16.375 -14.046875 L 12.65625 -15.40625 L 8.046875 -2.71875 C 7.691406 -1.75 7.601562 -1.007812 7.78125 -0.5 C 7.957031 0 8.4375 0.390625 9.21875 0.671875 C 9.664062 0.835938 10.34375 0.988281 11.25 1.125 Z M 10.34375 3.59375 "/></g></g></g><g fill="#000000" fill-opacity="1"><g transform="translate(69.92666, 212.404588)"><g><path d="M 10.265625 -15.75 C 11.328125 -16.925781 12.457031 -17.707031 13.65625 -18.09375 C 14.851562 -18.476562 16.25 -18.476562 17.84375 -18.09375 C 20.101562 -17.550781 21.628906 -16.585938 22.421875 -15.203125 C 23.222656 -13.816406 23.300781 -11.804688 22.65625 -9.171875 L 19.3125 4.671875 L 15.84375 3.828125 L 19.03125 -9.359375 C 19.382812 -10.816406 19.507812 -11.929688 19.40625 -12.703125 C 19.3125 -13.472656 19 -14.097656 18.46875 -14.578125 C 17.9375 -15.066406 17.125 -15.441406 16.03125 -15.703125 C 14.40625 -16.097656 12.96875 -15.847656 11.71875 -14.953125 C 10.46875 -14.054688 9.613281 -12.65625 9.15625 -10.75 L 6.1875 1.5 L 2.734375 0.65625 L 9.625 -27.84375 L 13.078125 -27 L 11.296875 -19.59375 C 11.097656 -18.800781 10.875 -17.992188 10.625 -17.171875 C 10.382812 -16.359375 10.242188 -15.890625 10.203125 -15.765625 Z M 10.265625 -15.75 "/></g></g></g><g fill="#000000" fill-opacity="1"><g transform="translate(93.711159, 218.010813)"><g><path d="M 6.3125 -9.40625 C 6.101562 -6.96875 6.441406 -5.039062 7.328125 -3.625 C 8.222656 -2.207031 9.640625 -1.410156 11.578125 -1.234375 C 13.117188 -1.097656 14.375 -1.296875 15.34375 -1.828125 C 16.320312 -2.367188 17.023438 -3.097656 17.453125 -4.015625 L 20.46875 -2.859375 C 18.894531 0.390625 15.851562 1.8125 11.34375 1.40625 C 8.1875 1.125 5.867188 -0.0234375 4.390625 -2.046875 C 2.921875 -4.066406 2.351562 -6.925781 2.6875 -10.625 C 3 -14.144531 4.054688 -16.769531 5.859375 -18.5 C 7.671875 -20.226562 10.109375 -20.957031 13.171875 -20.6875 C 19.429688 -20.125 22.222656 -16.066406 21.546875 -8.515625 L 21.5 -8.046875 Z M 18.09375 -11.109375 C 18.09375 -13.367188 17.664062 -15.050781 16.8125 -16.15625 C 15.957031 -17.269531 14.644531 -17.90625 12.875 -18.0625 C 11.164062 -18.21875 9.753906 -17.765625 8.640625 -16.703125 C 7.535156 -15.648438 6.859375 -14.128906 6.609375 -12.140625 Z M 18.09375 -11.109375 "/></g></g></g><g fill="#000000" fill-opacity="1"><g transform="translate(118.575431, 220.518259)"><g><path d="M 15.09375 -1.46875 L 13.78125 -14.96875 C 13.582031 -17.019531 13.164062 -18.410156 12.53125 -19.140625 C 11.894531 -19.867188 10.847656 -20.160156 9.390625 -20.015625 C 7.867188 -19.867188 6.722656 -19.175781 5.953125 -17.9375 C 5.191406 -16.695312 4.914062 -15.03125 5.125 -12.9375 L 6.3125 -0.609375 L 2.796875 -0.265625 L 1.171875 -17 C 0.929688 -19.476562 0.742188 -20.992188 0.609375 -21.546875 L 3.953125 -21.859375 C 3.972656 -21.796875 4.003906 -21.617188 4.046875 -21.328125 C 4.085938 -21.046875 4.132812 -20.71875 4.1875 -20.34375 C 4.25 -19.96875 4.34375 -19.265625 4.46875 -18.234375 L 4.53125 -18.25 C 5.144531 -19.832031 5.914062 -20.960938 6.84375 -21.640625 C 7.769531 -22.328125 8.941406 -22.738281 10.359375 -22.875 C 11.972656 -23.03125 13.28125 -22.832031 14.28125 -22.28125 C 15.28125 -21.738281 16.03125 -20.78125 16.53125 -19.40625 L 16.59375 -19.40625 C 17.175781 -20.90625 17.957031 -22.019531 18.9375 -22.75 C 19.925781 -23.488281 21.164062 -23.925781 22.65625 -24.0625 C 24.800781 -24.269531 26.414062 -23.835938 27.5 -22.765625 C 28.59375 -21.703125 29.269531 -19.835938 29.53125 -17.171875 L 30.90625 -2.984375 L 27.40625 -2.65625 L 26.09375 -16.15625 C 25.894531 -18.207031 25.472656 -19.597656 24.828125 -20.328125 C 24.191406 -21.054688 23.140625 -21.351562 21.671875 -21.21875 C 20.128906 -21.0625 18.976562 -20.367188 18.21875 -19.140625 C 17.46875 -17.910156 17.195312 -16.238281 17.40625 -14.125 L 18.59375 -1.796875 Z M 15.09375 -1.46875 "/></g></g></g><g fill="#000000" fill-opacity="1"><g transform="translate(154.430839, 216.30078)"><g><path d="M 7.96875 -1.90625 C 5.894531 -1.300781 4.1875 -1.390625 2.84375 -2.171875 C 1.5 -2.960938 0.550781 -4.3125 0 -6.21875 C -0.613281 -8.34375 -0.390625 -10.175781 0.671875 -11.71875 C 1.742188 -13.257812 3.820312 -14.519531 6.90625 -15.5 L 11.5 -16.90625 L 11.171875 -18.015625 C 10.691406 -19.691406 9.992188 -20.785156 9.078125 -21.296875 C 8.160156 -21.816406 6.945312 -21.859375 5.4375 -21.421875 C 3.90625 -20.972656 2.859375 -20.390625 2.296875 -19.671875 C 1.742188 -18.953125 1.566406 -18.003906 1.765625 -16.828125 L -1.890625 -16.125 C -2.378906 -19.988281 -0.164062 -22.628906 4.75 -24.046875 C 7.320312 -24.796875 9.429688 -24.765625 11.078125 -23.953125 C 12.722656 -23.140625 13.867188 -21.613281 14.515625 -19.375 L 17.078125 -10.53125 C 17.367188 -9.519531 17.722656 -8.796875 18.140625 -8.359375 C 18.554688 -7.921875 19.140625 -7.8125 19.890625 -8.03125 C 20.222656 -8.125 20.582031 -8.28125 20.96875 -8.5 L 21.578125 -6.390625 C 20.785156 -5.929688 19.941406 -5.570312 19.046875 -5.3125 C 17.773438 -4.945312 16.753906 -5.007812 15.984375 -5.5 C 15.222656 -6 14.597656 -6.953125 14.109375 -8.359375 L 13.984375 -8.3125 C 13.578125 -6.488281 12.882812 -5.082031 11.90625 -4.09375 C 10.9375 -3.113281 9.625 -2.382812 7.96875 -1.90625 Z M 8 -4.671875 C 9.257812 -5.035156 10.289062 -5.644531 11.09375 -6.5 C 11.90625 -7.351562 12.445312 -8.359375 12.71875 -9.515625 C 13 -10.671875 12.984375 -11.773438 12.671875 -12.828125 L 12.1875 -14.5 L 8.484375 -13.359375 C 6.867188 -12.867188 5.691406 -12.347656 4.953125 -11.796875 C 4.222656 -11.253906 3.722656 -10.601562 3.453125 -9.84375 C 3.191406 -9.09375 3.210938 -8.203125 3.515625 -7.171875 C 3.835938 -6.054688 4.390625 -5.28125 5.171875 -4.84375 C 5.953125 -4.40625 6.894531 -4.347656 8 -4.671875 Z M 8 -4.671875 "/></g></g></g><g fill="#000000" fill-opacity="1"><g transform="translate(177.300709, 209.267466)"><g><path d="M 10.046875 -4.34375 C 9.085938 -3.601562 8.039062 -3 6.90625 -2.53125 C 4.28125 -1.4375 2.347656 -2.378906 1.109375 -5.359375 L -4.359375 -18.53125 L -6.640625 -17.59375 L -7.625 -19.984375 L -5.21875 -20.984375 L -6.078125 -25.796875 L -3.875 -26.703125 L -2.046875 -22.296875 L 1.59375 -23.8125 L 2.578125 -21.421875 L -1.0625 -19.90625 L 4.109375 -7.4375 C 4.503906 -6.488281 4.929688 -5.882812 5.390625 -5.625 C 5.859375 -5.375 6.476562 -5.410156 7.25 -5.734375 C 7.6875 -5.921875 8.285156 -6.265625 9.046875 -6.765625 Z M 10.046875 -4.34375 "/></g></g></g><g fill="#000000" fill-opacity="1"><g transform="translate(188.449316, 204.572324)"><g><path d="M -9.078125 -24.4375 L -10.59375 -27.484375 L -7.40625 -29.0625 L -5.890625 -26.015625 Z M 2.421875 -1.203125 L -7.0625 -20.359375 L -3.875 -21.9375 L 5.609375 -2.78125 Z M 2.421875 -1.203125 "/></g></g></g><g fill="#000000" fill-opacity="1"><g transform="translate(197.722018, 200.211553)"><g><path d="M -1.0625 -12.03125 C 0.4375 -9.613281 1.925781 -8.0625 3.40625 -7.375 C 4.894531 -6.6875 6.398438 -6.816406 7.921875 -7.765625 C 8.992188 -8.429688 9.710938 -9.28125 10.078125 -10.3125 C 10.441406 -11.34375 10.332031 -12.515625 9.75 -13.828125 L 12.921875 -15.53125 C 13.765625 -13.632812 13.882812 -11.773438 13.28125 -9.953125 C 12.675781 -8.140625 11.410156 -6.632812 9.484375 -5.4375 C 6.941406 -3.863281 4.503906 -3.460938 2.171875 -4.234375 C -0.160156 -5.003906 -2.285156 -6.925781 -4.203125 -10 C -6.097656 -13.0625 -6.867188 -15.8125 -6.515625 -18.25 C -6.171875 -20.695312 -4.75 -22.695312 -2.25 -24.25 C -0.394531 -25.40625 1.441406 -25.878906 3.265625 -25.671875 C 5.085938 -25.472656 6.679688 -24.625 8.046875 -23.125 L 5.078125 -20.953125 C 4.296875 -21.867188 3.398438 -22.425781 2.390625 -22.625 C 1.390625 -22.820312 0.300781 -22.550781 -0.875 -21.8125 C -2.46875 -20.820312 -3.289062 -19.570312 -3.34375 -18.0625 C -3.394531 -16.5625 -2.632812 -14.550781 -1.0625 -12.03125 Z M -1.0625 -12.03125 "/></g></g></g><g fill="#000000" fill-opacity="1"><g transform="translate(216.311311, 188.514742)"><g><path d="M 10.703125 -16.5 C 11.984375 -14.945312 12.382812 -13.265625 11.90625 -11.453125 C 11.4375 -9.640625 10.144531 -7.863281 8.03125 -6.125 C 5.988281 -4.4375 4.128906 -3.46875 2.453125 -3.21875 C 0.785156 -2.976562 -0.800781 -3.4375 -2.3125 -4.59375 L -0.28125 -7.0625 C 0.675781 -6.363281 1.6875 -6.109375 2.75 -6.296875 C 3.820312 -6.492188 5.007812 -7.128906 6.3125 -8.203125 C 7.707031 -9.347656 8.550781 -10.398438 8.84375 -11.359375 C 9.132812 -12.328125 8.929688 -13.238281 8.234375 -14.09375 C 7.691406 -14.738281 7.023438 -15.082031 6.234375 -15.125 C 5.453125 -15.164062 4.460938 -14.90625 3.265625 -14.34375 L 0.875 -13.234375 C -1.039062 -12.347656 -2.488281 -11.820312 -3.46875 -11.65625 C -4.457031 -11.5 -5.375 -11.539062 -6.21875 -11.78125 C -7.0625 -12.03125 -7.820312 -12.566406 -8.5 -13.390625 C -9.738281 -14.890625 -10.144531 -16.472656 -9.71875 -18.140625 C -9.300781 -19.816406 -8.0625 -21.503906 -6 -23.203125 C -4.1875 -24.703125 -2.476562 -25.578125 -0.875 -25.828125 C 0.726562 -26.078125 2.253906 -25.609375 3.703125 -24.421875 L 1.5 -22.078125 C 0.738281 -22.679688 -0.132812 -22.90625 -1.125 -22.75 C -2.113281 -22.59375 -3.164062 -22.054688 -4.28125 -21.140625 C -5.53125 -20.109375 -6.289062 -19.160156 -6.5625 -18.296875 C -6.84375 -17.429688 -6.671875 -16.617188 -6.046875 -15.859375 C -5.660156 -15.390625 -5.21875 -15.101562 -4.71875 -15 C -4.226562 -14.894531 -3.65625 -14.929688 -3 -15.109375 C -2.351562 -15.285156 -1.101562 -15.820312 0.75 -16.71875 C 2.5 -17.5625 3.820312 -18.09375 4.71875 -18.3125 C 5.625 -18.53125 6.414062 -18.601562 7.09375 -18.53125 C 7.78125 -18.457031 8.421875 -18.257812 9.015625 -17.9375 C 9.617188 -17.613281 10.179688 -17.132812 10.703125 -16.5 Z M 10.703125 -16.5 "/></g></g></g><g fill="#000000" fill-opacity="1"><g transform="translate(238.299508, 173.830125)"><g><path d="M 2.515625 -1.109375 L -3.984375 -15.84375 C -4.578125 -17.1875 -5.265625 -18.664062 -6.046875 -20.28125 L -3.03125 -21.609375 C -1.976562 -19.460938 -1.351562 -18.171875 -1.15625 -17.734375 L -1.09375 -17.765625 C -1.3125 -19.640625 -1.222656 -21.023438 -0.828125 -21.921875 C -0.429688 -22.816406 0.367188 -23.53125 1.578125 -24.0625 C 2.003906 -24.25 2.46875 -24.382812 2.96875 -24.46875 L 4.25 -21.53125 C 3.769531 -21.457031 3.175781 -21.257812 2.46875 -20.9375 C 1.144531 -20.351562 0.382812 -19.335938 0.1875 -17.890625 C -0.0078125 -16.441406 0.359375 -14.648438 1.296875 -12.515625 L 5.71875 -2.515625 Z M 2.515625 -1.109375 "/></g></g></g><g fill="#000000" fill-opacity="1"><g transform="translate(248.935015, 168.75571)"><g><path d="M 2.265625 -10.90625 C 2.972656 -8.601562 3.992188 -6.972656 5.328125 -6.015625 C 6.660156 -5.054688 8.242188 -4.859375 10.078125 -5.421875 C 11.515625 -5.859375 12.582031 -6.503906 13.28125 -7.359375 C 13.976562 -8.210938 14.34375 -9.128906 14.375 -10.109375 L 17.5625 -10.15625 C 17.332031 -6.625 15.09375 -4.207031 10.84375 -2.90625 C 7.875 -2 5.335938 -2.191406 3.234375 -3.484375 C 1.140625 -4.785156 -0.4375 -7.175781 -1.5 -10.65625 C -2.507812 -13.976562 -2.503906 -16.757812 -1.484375 -19 C -0.472656 -21.238281 1.46875 -22.796875 4.34375 -23.671875 C 10.238281 -25.472656 14.273438 -22.816406 16.453125 -15.703125 L 16.578125 -15.28125 Z M 12.34375 -16.78125 C 11.519531 -18.84375 10.515625 -20.21875 9.328125 -20.90625 C 8.140625 -21.601562 6.707031 -21.695312 5.03125 -21.1875 C 3.414062 -20.695312 2.300781 -19.765625 1.6875 -18.390625 C 1.082031 -17.023438 1.023438 -15.382812 1.515625 -13.46875 Z M 12.34375 -16.78125 "/></g></g></g><g fill="#000000" fill-opacity="1"><g transform="translate(268.390699, 162.759366)"><g><path d="M 11.75 -1.84375 L 7.671875 -1.203125 L -3.125 -20.765625 L 0.546875 -21.34375 L 7.234375 -8.546875 C 7.484375 -8.078125 8.160156 -6.632812 9.265625 -4.21875 L 9.59375 -6.5625 L 9.984375 -8.953125 L 12.578125 -23.234375 L 16.234375 -23.8125 Z M 11.75 -1.84375 "/></g></g></g><g fill="#000000" fill-opacity="1"><g transform="translate(286.849738, 160.070104)"><g><path d="M 1.140625 -25.5625 L 0.953125 -28.90625 L 4.4375 -29.109375 L 4.625 -25.765625 Z M 2.65625 -0.15625 L 1.40625 -21.125 L 4.890625 -21.328125 L 6.140625 -0.359375 Z M 2.65625 -0.15625 "/></g></g></g><g fill="#000000" fill-opacity="1"><g transform="translate(294.458444, 159.293271)"><g><path d="M 18.640625 -5.109375 C 18.566406 -3.128906 17.757812 -1.628906 16.21875 -0.609375 C 14.6875 0.398438 12.582031 0.851562 9.90625 0.75 C 7.289062 0.65625 5.289062 0.15625 3.90625 -0.75 C 2.519531 -1.664062 1.648438 -3.039062 1.296875 -4.875 L 4.390625 -5.375 C 4.648438 -4.238281 5.234375 -3.390625 6.140625 -2.828125 C 7.054688 -2.265625 8.34375 -1.957031 10 -1.90625 C 11.757812 -1.832031 13.054688 -2.050781 13.890625 -2.5625 C 14.734375 -3.082031 15.175781 -3.882812 15.21875 -4.96875 C 15.25 -5.789062 14.988281 -6.472656 14.4375 -7.015625 C 13.894531 -7.554688 12.992188 -8.019531 11.734375 -8.40625 L 9.265625 -9.15625 C 7.285156 -9.75 5.878906 -10.304688 5.046875 -10.828125 C 4.222656 -11.347656 3.582031 -11.972656 3.125 -12.703125 C 2.675781 -13.429688 2.46875 -14.3125 2.5 -15.34375 C 2.570312 -17.257812 3.304688 -18.695312 4.703125 -19.65625 C 6.109375 -20.613281 8.117188 -21.039062 10.734375 -20.9375 C 13.035156 -20.851562 14.851562 -20.378906 16.1875 -19.515625 C 17.53125 -18.648438 18.347656 -17.3125 18.640625 -15.5 L 15.484375 -15.234375 C 15.328125 -16.160156 14.832031 -16.890625 14 -17.421875 C 13.175781 -17.953125 12.054688 -18.242188 10.640625 -18.296875 C 9.066406 -18.359375 7.894531 -18.160156 7.125 -17.703125 C 6.351562 -17.253906 5.945312 -16.546875 5.90625 -15.578125 C 5.882812 -14.984375 6.019531 -14.484375 6.3125 -14.078125 C 6.613281 -13.679688 7.066406 -13.335938 7.671875 -13.046875 C 8.273438 -12.753906 9.539062 -12.332031 11.46875 -11.78125 C 13.289062 -11.238281 14.597656 -10.757812 15.390625 -10.34375 C 16.191406 -9.9375 16.820312 -9.484375 17.28125 -8.984375 C 17.738281 -8.484375 18.085938 -7.910156 18.328125 -7.265625 C 18.566406 -6.628906 18.671875 -5.910156 18.640625 -5.109375 Z M 18.640625 -5.109375 "/></g></g></g><g fill="#000000" fill-opacity="1"><g transform="translate(313.090835, 160.189515)"><g><path d="M 6.015625 -24.875 L 6.453125 -28.1875 L 9.9375 -27.734375 L 9.5 -24.421875 Z M 2.625 0.359375 L 5.421875 -20.453125 L 8.90625 -20 L 6.109375 0.8125 Z M 2.625 0.359375 "/></g></g></g><g fill="#000000" fill-opacity="1"><g transform="translate(320.634094, 160.786719)"><g><path d="M 22.328125 -5.421875 C 21.460938 -1.847656 20.03125 0.617188 18.03125 1.984375 C 16.039062 3.347656 13.550781 3.671875 10.5625 2.953125 C 7.582031 2.234375 5.550781 0.78125 4.46875 -1.40625 C 3.382812 -3.59375 3.257812 -6.398438 4.09375 -9.828125 C 5.789062 -16.867188 9.6875 -19.648438 15.78125 -18.171875 C 18.90625 -17.421875 20.992188 -16.007812 22.046875 -13.9375 C 23.109375 -11.863281 23.203125 -9.023438 22.328125 -5.421875 Z M 18.765625 -6.28125 C 19.441406 -9.09375 19.519531 -11.238281 19 -12.71875 C 18.476562 -14.195312 17.226562 -15.171875 15.25 -15.640625 C 13.269531 -16.128906 11.671875 -15.828125 10.453125 -14.734375 C 9.242188 -13.648438 8.304688 -11.726562 7.640625 -8.96875 C 6.992188 -6.28125 6.945312 -4.148438 7.5 -2.578125 C 8.050781 -1.015625 9.257812 -0.0078125 11.125 0.4375 C 13.164062 0.9375 14.78125 0.632812 15.96875 -0.46875 C 17.164062 -1.570312 18.097656 -3.507812 18.765625 -6.28125 Z M 18.765625 -6.28125 "/></g></g></g><g fill="#000000" fill-opacity="1"><g transform="translate(340.374942, 165.420204)"><g><path d="M 14.828125 6.015625 L 19.84375 -6.3125 C 20.363281 -7.601562 20.640625 -8.648438 20.671875 -9.453125 C 20.703125 -10.253906 20.503906 -10.921875 20.078125 -11.453125 C 19.660156 -11.992188 18.921875 -12.484375 17.859375 -12.921875 C 16.296875 -13.554688 14.847656 -13.519531 13.515625 -12.8125 C 12.191406 -12.113281 11.144531 -10.820312 10.375 -8.9375 L 5.796875 2.34375 L 2.546875 1.03125 L 8.765625 -14.265625 C 9.679688 -16.523438 10.210938 -17.921875 10.359375 -18.453125 L 13.40625 -17.21875 C 13.382812 -17.15625 13.328125 -16.988281 13.234375 -16.71875 C 13.148438 -16.457031 13.046875 -16.148438 12.921875 -15.796875 C 12.796875 -15.441406 12.550781 -14.785156 12.1875 -13.828125 L 12.25 -13.8125 C 13.53125 -14.851562 14.773438 -15.453125 15.984375 -15.609375 C 17.191406 -15.765625 18.519531 -15.546875 19.96875 -14.953125 C 22.09375 -14.085938 23.429688 -12.925781 23.984375 -11.46875 C 24.546875 -10.019531 24.332031 -8.066406 23.34375 -5.609375 L 18.078125 7.34375 Z M 14.828125 6.015625 "/></g></g></g></svg>