<svg xmlns="http://www.w3.org/2000/svg" xmlns:xlink="http://www.w3.org/1999/xlink" width="500" zoomAndPan="magnify" viewBox="0 0 375 374.999991" height="500" preserveAspectRatio="xMidYMid meet" version="1.0"><defs><clipPath id="6fd9f3902a"><path d="M 100.332031 122.628906 L 274.332031 122.628906 L 274.332031 262.878906 L 100.332031 262.878906 Z M 100.332031 122.628906 " clip-rule="nonzero"/></clipPath></defs><g clip-path="url(#6fd9f3902a)"><path fill="#ffffff" d="M 257.785156 233.984375 L 117.207031 233.984375 C 111.25 233.984375 106.367188 229.34375 105.953125 223.492188 L 269.039062 223.492188 C 268.625 229.34375 263.742188 233.984375 257.785156 233.984375 Z M 196.394531 257.332031 L 178.59375 257.320312 L 178.59375 239.5625 L 196.394531 239.5625 Z M 117.207031 128.222656 L 257.785156 128.222656 C 264.011719 128.222656 269.078125 133.292969 269.078125 139.519531 L 269.078125 217.910156 L 105.910156 217.910156 L 105.910156 139.519531 C 105.910156 133.292969 110.976562 128.222656 117.207031 128.222656 Z M 257.785156 122.644531 L 117.207031 122.644531 C 107.898438 122.644531 100.332031 130.214844 100.332031 139.519531 L 100.332031 222.6875 C 100.332031 231.992188 107.898438 239.5625 117.207031 239.5625 L 173.015625 239.5625 L 173.015625 257.316406 L 131.714844 257.285156 C 130.175781 257.285156 128.925781 258.535156 128.925781 260.074219 C 128.921875 261.617188 130.171875 262.863281 131.710938 262.867188 L 173.015625 262.894531 L 173.015625 262.945312 L 201.976562 262.945312 L 201.976562 262.917969 L 243.273438 262.945312 C 243.273438 262.945312 243.273438 262.945312 243.277344 262.945312 C 244.816406 262.945312 246.066406 261.699219 246.066406 260.15625 C 246.066406 258.617188 244.820312 257.367188 243.277344 257.367188 L 201.976562 257.335938 L 201.976562 239.5625 L 257.785156 239.5625 C 267.089844 239.5625 274.660156 231.992188 274.660156 222.6875 L 274.660156 139.519531 C 274.660156 130.214844 267.089844 122.644531 257.785156 122.644531 " fill-opacity="1" fill-rule="nonzero"/></g><path fill="#ffffff" d="M 169.101562 192.957031 L 243.296875 192.957031 C 244.839844 192.957031 246.089844 191.707031 246.089844 190.167969 C 246.089844 188.625 244.839844 187.375 243.296875 187.375 L 169.101562 187.375 C 167.5625 187.375 166.3125 188.625 166.3125 190.167969 C 166.3125 191.707031 167.5625 192.957031 169.101562 192.957031 " fill-opacity="1" fill-rule="nonzero"/><path fill="#ffffff" d="M 169.101562 202.421875 L 206.199219 202.421875 C 207.742188 202.421875 208.992188 201.171875 208.992188 199.632812 C 208.992188 198.089844 207.742188 196.839844 206.199219 196.839844 L 169.101562 196.839844 C 167.5625 196.839844 166.3125 198.089844 166.3125 199.632812 C 166.3125 201.171875 167.5625 202.421875 169.101562 202.421875 " fill-opacity="1" fill-rule="nonzero"/><path fill="#ffffff" d="M 133.925781 209.40625 L 154.839844 209.40625 C 157.609375 209.40625 159.863281 207.152344 159.863281 204.386719 L 159.863281 195.386719 C 159.863281 193.847656 158.613281 192.597656 157.070312 192.597656 C 155.53125 192.597656 154.28125 193.847656 154.28125 195.386719 L 154.28125 203.828125 L 134.480469 203.828125 L 134.480469 184.027344 L 151.558594 184.027344 C 153.097656 184.027344 154.347656 182.777344 154.347656 181.238281 C 154.347656 179.695312 153.097656 178.445312 151.558594 178.445312 L 133.925781 178.445312 C 131.15625 178.445312 128.902344 180.699219 128.902344 183.46875 L 128.902344 204.386719 C 128.902344 207.152344 131.15625 209.40625 133.925781 209.40625 " fill-opacity="1" fill-rule="nonzero"/><path fill="#ffffff" d="M 159.265625 180.214844 L 145.4375 193.148438 L 141.691406 190.191406 C 140.648438 189.367188 139.128906 189.542969 138.304688 190.589844 C 137.480469 191.632812 137.65625 193.148438 138.703125 193.976562 L 144.074219 198.21875 C 144.515625 198.566406 145.042969 198.738281 145.570312 198.738281 C 146.164062 198.738281 146.753906 198.519531 147.214844 198.085938 L 162.558594 183.734375 C 163.535156 182.828125 163.585938 181.300781 162.675781 180.328125 C 161.765625 179.355469 160.238281 179.304688 159.265625 180.214844 " fill-opacity="1" fill-rule="nonzero"/><path fill="#ffffff" d="M 169.257812 150.902344 L 243.453125 150.902344 C 244.996094 150.902344 246.246094 149.65625 246.246094 148.113281 C 246.246094 146.570312 244.996094 145.324219 243.453125 145.324219 L 169.257812 145.324219 C 167.71875 145.324219 166.46875 146.570312 166.46875 148.113281 C 166.46875 149.65625 167.71875 150.902344 169.257812 150.902344 " fill-opacity="1" fill-rule="nonzero"/><path fill="#ffffff" d="M 169.257812 160.367188 L 206.355469 160.367188 C 207.898438 160.367188 209.148438 159.117188 209.148438 157.578125 C 209.148438 156.035156 207.898438 154.785156 206.355469 154.785156 L 169.257812 154.785156 C 167.71875 154.785156 166.46875 156.035156 166.46875 157.578125 C 166.46875 159.117188 167.71875 160.367188 169.257812 160.367188 " fill-opacity="1" fill-rule="nonzero"/><path fill="#ffffff" d="M 134.082031 167.355469 L 154.996094 167.355469 C 157.765625 167.355469 160.019531 165.101562 160.019531 162.332031 L 160.019531 153.335938 C 160.019531 151.792969 158.769531 150.546875 157.226562 150.546875 C 155.6875 150.546875 154.4375 151.792969 154.4375 153.335938 L 154.4375 161.773438 L 134.636719 161.773438 L 134.636719 141.976562 L 151.714844 141.976562 C 153.253906 141.976562 154.503906 140.726562 154.503906 139.183594 C 154.503906 137.644531 153.253906 136.394531 151.714844 136.394531 L 134.082031 136.394531 C 131.3125 136.394531 129.058594 138.648438 129.058594 141.417969 L 129.058594 162.332031 C 129.058594 165.101562 131.3125 167.355469 134.082031 167.355469 " fill-opacity="1" fill-rule="nonzero"/><path fill="#ffffff" d="M 141.847656 148.136719 C 140.804688 147.3125 139.285156 147.492188 138.460938 148.535156 C 137.636719 149.582031 137.8125 151.097656 138.859375 151.921875 L 144.230469 156.164062 C 144.671875 156.511719 145.199219 156.683594 145.722656 156.683594 C 146.320312 156.683594 146.910156 156.464844 147.371094 156.035156 L 162.71875 141.683594 C 163.691406 140.773438 163.742188 139.246094 162.832031 138.273438 C 161.921875 137.300781 160.394531 137.25 159.421875 138.160156 L 145.59375 151.097656 L 141.847656 148.136719 " fill-opacity="1" fill-rule="nonzero"/></svg>