<svg xmlns="http://www.w3.org/2000/svg" xmlns:xlink="http://www.w3.org/1999/xlink" width="500" zoomAndPan="magnify" viewBox="0 0 375 374.999991" height="500" preserveAspectRatio="xMidYMid meet" version="1.0"><defs><clipPath id="e13eba16db"><path d="M 74 156 L 301 156 L 301 282.722656 L 74 282.722656 Z M 74 156 " clip-rule="nonzero"/></clipPath><clipPath id="ec5be6d859"><path d="M 155 123.722656 L 208 123.722656 L 208 245 L 155 245 Z M 155 123.722656 " clip-rule="nonzero"/></clipPath></defs><g clip-path="url(#e13eba16db)"><path fill="#000000" d="M 75.441406 223.996094 C 95.066406 228.804688 114.332031 235.050781 133.046875 242.664062 C 132.976562 250.65625 139.074219 258.003906 146.6875 260.449219 C 154.300781 262.898438 162.9375 260.871094 169.421875 256.195312 C 192.804688 266.085938 216.675781 274.839844 240.90625 282.425781 C 242.925781 283.054688 245.125 282.425781 246.503906 280.824219 C 263.242188 261.429688 283.085938 238.015625 299.894531 218.53125 C 301.28125 216.921875 300.683594 214.425781 298.714844 213.617188 C 245.953125 191.890625 191.933594 173.984375 138.664062 156.578125 C 137.726562 156.269531 136.746094 155.957031 135.777344 156.128906 C 134.476562 156.339844 133.476562 157.335938 132.570312 158.277344 C 116.929688 174.445312 111.09375 182.71875 95.464844 198.886719 L 74.550781 220.980469 C 73.582031 222 74.082031 223.667969 75.441406 223.996094 Z M 75.441406 223.996094 " fill-opacity="1" fill-rule="nonzero"/></g><path stroke-linecap="round" transform="matrix(0.999255, 0, 0, 0.999255, -25.093924, -8.978451)" fill-opacity="1" fill="#ffffff" fill-rule="nonzero" stroke-linejoin="round" d="M 185.239739 263.209697 C 178.128973 267.63096 169.919732 264.018894 166.628218 256.861218 C 164.970733 253.260879 164.341358 247.760688 160.928659 245.720105 C 156.370576 242.99151 150.010369 241.670213 144.998823 239.860271 C 139.561178 237.890053 134.729453 236.850216 129.260535 234.958181 C 127.618687 234.391353 118.60025 231.439935 111.708396 228.660521 C 128.029149 210.568918 145.350647 192.50077 161.679218 174.401348 C 162.578325 173.400603 163.590799 172.34122 164.931641 172.169216 C 164.779184 172.321674 165.561016 171.508568 165.408559 171.661025 C 196.021209 182.649681 269.110817 205.041362 315.649394 223.961708 C 301.001763 241.799215 288.289167 255.520375 266.460404 282.020586 C 265.889667 282.720326 250.761209 276.12166 248.990358 275.46883 C 243.748171 273.541613 238.498167 271.649579 233.228616 269.808363 C 227.18896 267.709143 221.129758 265.680288 215.058829 263.698343 C 208.718168 261.630396 201.161757 258.151241 194.340269 259.019075 C 191.02139 259.441265 188.12861 261.411483 185.239739 263.209697 Z M 185.239739 263.209697 " stroke="#365fa0" stroke-width="1" stroke-opacity="1" stroke-miterlimit="10"/><path fill="#ffffff" d="M 250.160156 257.34375 C 245.992188 256.832031 239.527344 255.5625 235.183594 253.574219 C 231.835938 252.046875 228.085938 249.570312 224.769531 247.980469 C 221.722656 246.519531 216.054688 245.8125 212.6875 246.042969 C 199.488281 246.972656 188.40625 248.828125 175.207031 249.757812 L 171.140625 248.667969 L 172.519531 249.078125 L 167.8125 247.691406 L 156.199219 243.503906 C 155.140625 241.945312 152.421875 239.847656 151.59375 239.285156 C 131.007812 225.578125 109.105469 214.304688 86.542969 204.171875 C 93.066406 197.558594 98.582031 191.8125 105.058594 185.238281 C 102.941406 183.546875 100.773438 181.859375 98.542969 180.160156 C 103.878906 174.304688 110.773438 167.140625 116.109375 161.285156 C 116.25 161.355469 113.691406 160.003906 111.855469 159.035156 C 125.855469 149.875 154.121094 138.191406 167.023438 129.839844 C 169.082031 135.125 170.980469 141.058594 170.980469 146.90625 C 177.566406 141.808594 190.855469 129.488281 196.222656 124.273438 C 199.160156 138.980469 207.28125 169.257812 207.980469 179.691406 C 217.695312 170.988281 226.859375 164.453125 236.632812 164.332031 C 242.328125 164.273438 254.898438 165.121094 261.523438 165.929688 C 254.46875 173.214844 247.222656 179.550781 239.589844 185.667969 C 246.542969 182.4375 254.039062 179.949219 261.421875 178.070312 C 268.425781 176.292969 269.964844 175.195312 282.148438 180.140625 C 275.472656 183.488281 268.785156 186.84375 262.113281 190.191406 C 268.308594 191.421875 283.636719 194.269531 290.28125 196.070312 C 288.851562 197.496094 287.421875 198.9375 285.996094 200.367188 C 289.121094 201.253906 292.257812 202.152344 295.386719 203.042969 C 280.046875 221.910156 267.207031 240.035156 250.160156 257.34375 " fill-opacity="1" fill-rule="nonzero"/><path stroke-linecap="round" transform="matrix(0.999255, 0, 0, 0.999255, -25.093924, -8.978451)" fill="none" stroke-linejoin="round" d="M 181.17812 252.670596 C 180.138283 250.731651 178.648892 249.680087 176.819404 248.4487 C 156.218118 234.73145 134.299445 223.449608 111.720124 213.309241 C 118.400882 206.530753 123.568795 201.171292 130.249553 194.388895 " stroke="#365fa0" stroke-width="1" stroke-opacity="1" stroke-miterlimit="10"/><path stroke-linecap="round" transform="matrix(0.999255, 0, 0, 0.999255, -25.093924, -8.978451)" fill="none" stroke-linejoin="round" d="M 182.409506 252.209315 C 181.901315 246.509756 175.861659 239.578811 172.198774 235.181004 C 157.089862 217.019036 142.500868 203.618427 123.721252 189.27962 C 129.061168 183.419786 134.408902 177.548224 139.748818 171.688389 " stroke="#365fa0" stroke-width="1" stroke-opacity="1" stroke-miterlimit="10"/><path stroke-linecap="round" transform="matrix(0.999255, 0, 0, 0.999255, -25.093924, -8.978451)" fill="none" stroke-linejoin="round" d="M 183.480616 253.198333 C 185.349196 219.360624 165.791657 186.081925 137.039768 168.131052 C 151.050206 158.960157 179.340813 147.271762 192.248867 138.910064 C 194.308996 144.19916 196.208849 147.83859 196.208849 153.690606 " stroke="#365fa0" stroke-width="1" stroke-opacity="1" stroke-miterlimit="10"/><g clip-path="url(#ec5be6d859)"><path stroke-linecap="round" transform="matrix(0.999255, 0, 0, 0.999255, -25.093924, -8.978451)" fill="none" stroke-linejoin="round" d="M 183.871533 253.221788 C 185.130283 245.251006 185.32965 238.120694 185.310104 230.048273 C 185.239739 209.138164 181.471307 188.591607 181.400942 167.681498 C 191.619492 159.081341 211.900226 142.65895 221.458128 133.331689 C 224.780916 146.630659 232.349054 175.879011 232.32169 187.841048 " stroke="#365fa0" stroke-width="1" stroke-opacity="1" stroke-miterlimit="10"/></g><path stroke-linecap="round" transform="matrix(0.999255, 0, 0, 0.999255, -25.093924, -8.978451)" fill="none" stroke-linejoin="round" d="M 183.480616 253.198333 C 241.508221 161.610569 259.220636 173.920521 268.891903 173.779791 C 275.091835 173.689881 282.179146 174.991632 286.811503 175.038542 C 271.65959 190.698646 255.639843 201.980488 236.668679 215.990926 C 219.401909 228.730886 206.501673 240.161276 193.038518 256.869036 " stroke="#365fa0" stroke-width="1" stroke-opacity="1" stroke-miterlimit="10"/><path stroke-linecap="round" transform="matrix(0.999255, 0, 0, 0.999255, -25.093924, -8.978451)" fill="none" stroke-linejoin="round" d="M 263.231436 196.081562 C 270.920759 192.199764 278.348167 189.299166 286.709865 187.1804 C 293.718993 185.401731 295.259203 184.299347 307.45188 189.248347 C 298.789177 193.591426 290.138201 197.930596 281.479406 202.281494 C 270.428204 207.820777 259.369184 213.371787 248.720626 219.649902 C 231.680587 229.688631 209.910463 244.848362 195.430925 258.311517 " stroke="#365fa0" stroke-width="1" stroke-opacity="1" stroke-miterlimit="10"/><path stroke-linecap="round" transform="matrix(0.999255, 0, 0, 0.999255, -25.093924, -8.978451)" fill="none" stroke-linejoin="round" d="M 288.160164 199.49817 C 297.440516 200.631827 306.630956 202.539498 315.590756 205.201638 C 303.910179 216.909579 292.229602 228.621429 280.549025 240.32937 C 279.868831 241.009565 279.141727 241.721032 278.199619 241.908672 C 277.148054 242.119767 276.108217 241.631121 275.138745 241.201114 C 261.941413 235.489827 246.7895 240.05182 233.158251 244.648995 C 225.08974 247.369772 219.249451 249.339989 211.18094 252.068585 C 205.778478 253.890254 200.239195 255.969929 196.380852 257.838508 " stroke="#365fa0" stroke-width="1" stroke-opacity="1" stroke-miterlimit="10"/><path stroke-linecap="round" transform="matrix(0.999255, 0, 0, 0.999255, -25.093924, -8.978451)" fill="none" stroke-linejoin="round" d="M 311.290678 209.501716 C 314.429735 210.400824 317.560974 211.288204 320.700031 212.19122 C 305.380024 231.060747 292.51888 249.19926 275.459296 266.520758 C 268.180436 263.8508 262.32842 259.101168 257.269964 255.21937 C 250.518841 250.051457 241.058668 251.169477 232.669606 252.541593 C 221.02812 254.441446 209.390544 256.349117 197.749059 258.24897 " stroke="#365fa0" stroke-width="1" stroke-opacity="1" stroke-miterlimit="10"/><path stroke-linecap="round" transform="matrix(0.999255, 0, 0, 0.999255, -25.093924, -8.978451)" fill="none" stroke-linejoin="round" d="M 198.421435 258.921346 C 211.630494 257.990966 224.741824 256.141932 237.950884 255.211551 C 241.320582 254.969183 246.988867 255.688469 250.041923 257.150496 C 253.36862 258.741525 257.109688 261.208206 260.45984 262.748416 C 265.659026 265.129096 270.361748 266.141569 275.451478 266.520758 " stroke="#365fa0" stroke-width="1" stroke-opacity="1" stroke-miterlimit="10"/><path stroke-linecap="round" transform="matrix(0.999255, 0, 0, 0.999255, -25.093924, -8.978451)" fill="none" stroke-linejoin="round" d="M 162.050589 246.509756 C 171.389577 248.788798 184.62991 253.659614 195.438744 258.921346 " stroke="#365fa0" stroke-width="1" stroke-opacity="1" stroke-miterlimit="10"/><path stroke-linecap="round" transform="matrix(0.999255, 0, 0, 0.999255, -25.093924, -8.978451)" fill="none" stroke-linejoin="round" d="M 117.419683 227.468226 C 119.780817 224.938998 122.141951 222.40977 124.510903 219.880542 " stroke="#365fa0" stroke-width="1" stroke-opacity="1" stroke-miterlimit="10"/><path stroke-linecap="round" transform="matrix(0.999255, 0, 0, 0.999255, -25.093924, -8.978451)" fill="none" stroke-linejoin="round" d="M 115.8912 215.209093 C 120.961384 209.509535 127.700779 202.750593 133.959348 198.000961 " stroke="#365fa0" stroke-width="1" stroke-opacity="1" stroke-miterlimit="10"/><path stroke-linecap="round" transform="matrix(0.999255, 0, 0, 0.999255, -25.093924, -8.978451)" fill="none" stroke-linejoin="round" d="M 165.908932 249.050711 C 166.1513 252.518138 168.789984 256.919855 171.229302 259.398264 C 173.668619 261.880582 175.881205 262.431774 179.348632 262.72887 " stroke="#365fa0" stroke-width="1" stroke-opacity="1" stroke-miterlimit="10"/></svg>