<svg xmlns="http://www.w3.org/2000/svg" xmlns:xlink="http://www.w3.org/1999/xlink" width="500" zoomAndPan="magnify" viewBox="0 0 375 374.999991" height="500" preserveAspectRatio="xMidYMid meet" version="1.0"><defs><clipPath id="3c53ca6cd5"><path d="M 38 37 L 356 37 L 356 320 L 38 320 Z M 38 37 " clip-rule="nonzero"/></clipPath><clipPath id="0171455976"><path d="M 76.320312 0 L 374.761719 90.984375 L 298.429688 341.359375 L -0.0078125 250.375 Z M 76.320312 0 " clip-rule="nonzero"/></clipPath><clipPath id="ce4046d6f4"><path d="M 76.320312 0 L 374.761719 90.984375 L 298.429688 341.359375 L -0.0078125 250.375 Z M 76.320312 0 " clip-rule="nonzero"/></clipPath><clipPath id="6bbfc53a22"><path d="M 76.320312 0 L 374.761719 90.984375 L 298.429688 341.359375 L -0.0078125 250.375 Z M 76.320312 0 " clip-rule="nonzero"/></clipPath></defs><g clip-path="url(#3c53ca6cd5)"><g clip-path="url(#0171455976)"><g clip-path="url(#ce4046d6f4)"><g clip-path="url(#6bbfc53a22)"><path fill="#000000" d="M 325.488281 76.496094 C 325.488281 76.492188 325.488281 76.492188 325.488281 76.496094 C 325.503906 76.261719 325.109375 76.007812 324.289062 75.78125 C 323.472656 75.570312 322.230469 75.332031 320.566406 75.292969 C 308.78125 74.894531 297.03125 76.402344 285.511719 78.617188 C 279.75 79.734375 274.03125 81.046875 268.34375 82.425781 C 262.707031 83.816406 257.035156 84.941406 251.296875 85.886719 C 239.835938 87.792969 228.230469 89.0625 216.628906 90.816406 C 210.820312 91.675781 205.015625 92.773438 199.316406 93.773438 C 193.578125 94.734375 187.824219 95.632812 182.054688 96.429688 C 158.972656 99.671875 135.667969 101.902344 112.542969 105.832031 C 109.65625 106.351562 106.765625 106.816406 103.886719 107.398438 L 99.570312 108.234375 L 95.265625 109.152344 L 86.710938 111.007812 L 78.144531 112.792969 C 66.714844 115.164062 55.214844 117.53125 44.011719 121.101562 C 43.074219 121.414062 42.261719 121.714844 41.574219 121.996094 C 40.890625 122.292969 40.332031 122.566406 39.894531 122.816406 C 39.019531 123.308594 38.636719 123.6875 38.714844 123.910156 C 38.542969 124.339844 40.011719 125.445312 43.316406 126.625 L 50.667969 129.132812 C 53.074219 129.976562 55.5 130.929688 57.925781 131.828125 L 72.484375 137.28125 L 79.765625 139.996094 L 83.464844 141.320312 L 87.199219 142.546875 C 92.191406 144.117188 97.25 145.4375 102.316406 146.640625 C 112.457031 149.046875 122.660156 150.960938 132.707031 153.289062 C 135.222656 153.871094 137.71875 154.484375 140.210938 155.125 L 147.714844 157.109375 C 152.710938 158.457031 157.703125 159.828125 162.683594 161.238281 C 182.617188 166.863281 202.460938 172.902344 222.464844 178.460938 C 227.464844 179.855469 232.476562 181.214844 237.5 182.527344 C 240.007812 183.195312 242.527344 183.824219 245.042969 184.464844 C 246.3125 184.78125 247.539062 185.109375 248.765625 185.4375 C 249.992188 185.789062 251.214844 186.136719 252.429688 186.542969 C 262.167969 189.667969 271.472656 194.347656 281.332031 197.808594 C 282.726562 198.292969 283.820312 198.523438 284.578125 198.578125 C 285.332031 198.640625 285.75 198.535156 285.824219 198.3125 C 286.273438 198.433594 286.917969 197.855469 287.355469 196.476562 L 289.589844 189.113281 L 290.695312 185.425781 L 291.878906 181.769531 C 292.664062 179.328125 293.472656 176.894531 294.289062 174.460938 L 296.746094 167.171875 C 300.054688 157.457031 303.464844 147.765625 306.84375 138.058594 C 313.605469 118.648438 320.242188 99.125 325.691406 79.269531 C 326.132812 77.589844 325.9375 76.628906 325.488281 76.496094 Z M 103.097656 143.226562 C 98.0625 142.117188 93.058594 140.902344 88.132812 139.457031 L 84.457031 138.332031 L 80.808594 137.113281 L 73.464844 134.5625 L 58.769531 129.484375 C 56.316406 128.652344 53.890625 127.777344 51.386719 126.980469 L 43.957031 124.695312 C 42.808594 124.339844 41.851562 124.085938 41.078125 123.921875 C 41.398438 123.859375 41.742188 123.78125 42.125 123.6875 C 42.839844 123.527344 43.667969 123.316406 44.601562 123.042969 C 55.75 119.828125 67.222656 117.757812 78.699219 115.625 L 87.316406 114.011719 L 95.917969 112.3125 L 100.195312 111.476562 L 104.492188 110.714844 C 107.351562 110.183594 110.234375 109.761719 113.101562 109.285156 C 119.269531 108.324219 125.457031 107.480469 131.65625 106.683594 C 132.222656 107.695312 132.597656 108.9375 132.875 110.164062 C 133.277344 111.980469 133.492188 113.878906 133.625 115.785156 C 133.75 117.691406 133.789062 119.621094 133.742188 121.523438 C 133.730469 122 133.714844 122.472656 133.6875 122.9375 L 133.640625 123.628906 L 133.578125 124.359375 L 133.316406 127.269531 C 132.9375 131.125 132.367188 134.886719 131.1875 138.445312 C 130.882812 139.328125 130.5625 140.210938 130.183594 141.070312 C 130.003906 141.5 129.804688 141.929688 129.59375 142.347656 C 129.398438 142.765625 129.167969 143.207031 128.941406 143.640625 C 128.488281 144.507812 128.0625 145.335938 127.5625 146.015625 C 127.097656 146.648438 126.480469 147.253906 125.816406 147.863281 C 118.214844 146.308594 110.617188 144.886719 103.097656 143.226562 Z M 282.027344 195.925781 C 278.566406 194.589844 275.164062 193.09375 271.757812 191.5625 C 273.285156 189.011719 274.398438 186.273438 275.449219 183.644531 C 276.382812 181.300781 277.273438 179.015625 278.351562 176.917969 C 278.945312 177.148438 279.519531 177.332031 280.089844 177.496094 C 281.253906 177.828125 282.386719 178.082031 283.496094 178.332031 C 284.605469 178.582031 285.699219 178.824219 286.726562 179.121094 C 287.738281 179.410156 288.753906 179.792969 289.296875 180.28125 C 289.300781 180.285156 289.308594 180.285156 289.316406 180.289062 C 289.253906 180.507812 289.191406 180.726562 289.132812 180.945312 L 288.128906 184.675781 L 287.21875 188.433594 L 285.425781 195.945312 C 285.269531 196.640625 285.257812 197.1875 285.332031 197.585938 C 285.230469 197.507812 285.125 197.425781 284.992188 197.339844 C 284.359375 196.9375 283.375 196.464844 282.027344 195.925781 Z M 303.082031 136.746094 C 299.699219 146.46875 296.4375 156.242188 293.429688 166.097656 C 292.683594 168.5625 291.933594 171.027344 291.226562 173.507812 C 290.792969 175 290.367188 176.496094 289.945312 177.996094 C 289.765625 177.839844 289.582031 177.695312 289.402344 177.558594 C 288.859375 177.171875 288.308594 176.859375 287.753906 176.574219 C 286.652344 176.011719 285.542969 175.570312 284.449219 175.15625 L 281.261719 173.972656 C 280.753906 173.777344 280.261719 173.578125 279.816406 173.363281 C 279.375 173.15625 278.96875 172.925781 278.730469 172.738281 C 278.683594 172.699219 278.632812 172.660156 278.578125 172.625 C 277.691406 172.050781 276.507812 172.300781 275.929688 173.1875 L 275.882812 173.261719 C 273.984375 176.1875 272.890625 179.382812 272 182.464844 C 271.199219 185.25 270.5625 187.980469 269.695312 190.632812 C 264.347656 188.214844 258.96875 185.785156 253.34375 183.824219 C 252.109375 183.378906 250.847656 182.988281 249.59375 182.59375 C 248.324219 182.226562 247.054688 181.855469 245.816406 181.519531 L 238.34375 179.429688 C 233.363281 178.019531 228.394531 176.578125 223.425781 175.109375 C 203.5625 169.246094 183.761719 163.046875 163.765625 157.402344 C 158.769531 155.984375 153.757812 154.617188 148.734375 153.285156 L 141.183594 151.328125 C 138.652344 150.691406 136.109375 150.085938 133.566406 149.515625 C 131.898438 149.144531 130.226562 148.789062 128.554688 148.4375 C 128.855469 148.195312 129.152344 147.941406 129.4375 147.65625 C 130.242188 146.839844 130.84375 145.957031 131.417969 145.132812 C 131.703125 144.71875 131.980469 144.308594 132.261719 143.859375 C 132.546875 143.417969 132.816406 142.972656 133.070312 142.511719 C 133.589844 141.601562 134.039062 140.652344 134.457031 139.691406 C 136.105469 135.828125 136.890625 131.691406 137.285156 127.664062 C 137.382812 126.65625 137.460938 125.648438 137.519531 124.644531 L 137.566406 123.890625 L 137.597656 123.097656 C 137.609375 122.574219 137.609375 122.054688 137.601562 121.539062 C 137.5625 119.476562 137.394531 117.4375 137.085938 115.402344 C 136.777344 113.371094 136.335938 111.34375 135.625 109.355469 C 135.265625 108.359375 134.839844 107.375 134.277344 106.425781 C 134.261719 106.40625 134.246094 106.386719 134.234375 106.363281 C 150.316406 104.34375 166.476562 102.648438 182.605469 100.378906 C 188.40625 99.578125 194.203125 98.664062 199.984375 97.671875 C 205.792969 96.632812 211.464844 95.527344 217.214844 94.636719 C 228.703125 92.8125 240.328125 91.417969 251.894531 89.324219 C 257.671875 88.289062 263.445312 87.046875 269.125 85.539062 C 274.761719 84.066406 280.40625 82.65625 286.085938 81.429688 C 297.429688 78.996094 308.953125 77.230469 320.527344 77.300781 C 322.164062 77.269531 323.390625 77.242188 324.21875 77.085938 C 324.363281 77.058594 324.492188 77.03125 324.609375 77.003906 C 324.324219 77.363281 324.023438 77.910156 323.753906 78.667969 C 317.078125 98.074219 309.847656 117.304688 303.082031 136.746094 Z M 131.992188 37.621094 C 132.402344 36.699219 134.066406 37.21875 133.910156 38.191406 C 133.351562 41.035156 132.847656 43.894531 132.292969 46.765625 C 132.464844 46.675781 132.640625 46.597656 132.820312 46.519531 C 133.125 46.367188 133.496094 46.285156 133.847656 46.195312 C 134.566406 46.035156 135.347656 46.046875 136.070312 46.203125 C 136.429688 46.261719 136.882812 46.425781 137.289062 46.660156 C 137.699219 46.902344 138.085938 47.246094 138.355469 47.636719 C 138.910156 48.425781 139.054688 49.222656 139.105469 49.875 C 139.175781 51.195312 138.921875 52.246094 138.664062 53.269531 C 138.125 55.28125 137.332031 57.113281 136.773438 58.878906 C 136.597656 59.386719 136.117188 59.582031 135.644531 59.554688 C 135.179688 59.527344 134.730469 59.132812 134.785156 58.484375 C 135.039062 56.410156 135.523438 54.523438 135.75 52.6875 C 135.863281 51.789062 135.921875 50.875 135.796875 50.238281 C 135.742188 49.921875 135.617188 49.738281 135.582031 49.738281 C 135.546875 49.738281 135.605469 49.769531 135.390625 49.746094 C 134.914062 49.699219 134.492188 49.835938 133.953125 50.203125 C 133.425781 50.570312 132.882812 51.152344 132.394531 51.816406 C 131.421875 53.152344 130.601562 54.835938 130.023438 56.457031 L 129.996094 56.527344 C 129.628906 57.554688 128.496094 58.089844 127.46875 57.722656 C 126.464844 57.363281 125.933594 56.269531 126.25 55.261719 C 128.089844 49.488281 129.652344 43.453125 131.992188 37.621094 Z M 140.691406 55.988281 C 140.859375 53.921875 141.675781 52.296875 142.480469 50.765625 C 143.078125 49.753906 144.652344 50.511719 144.3125 51.578125 C 143.78125 53.113281 143.339844 54.695312 143.433594 56.011719 C 143.480469 56.664062 143.671875 57.175781 143.976562 57.535156 C 144.257812 57.886719 144.796875 58.203125 145.203125 58.300781 C 145.597656 58.386719 145.84375 58.3125 146.253906 58.058594 C 146.652344 57.796875 147.101562 57.339844 147.488281 56.773438 C 148.265625 55.648438 148.925781 54.207031 149.324219 52.839844 C 149.628906 51.796875 150.714844 51.199219 151.753906 51.5 C 152.65625 51.761719 153.226562 52.613281 153.164062 53.511719 L 153.164062 53.546875 C 153.066406 54.980469 152.742188 56.207031 152.515625 57.300781 C 152.402344 57.847656 152.304688 58.363281 152.25 58.84375 C 152.199219 59.316406 152.179688 59.796875 152.195312 60.328125 C 152.21875 61.378906 152.351562 62.550781 152.390625 63.832031 C 152.410156 64.472656 152.40625 65.144531 152.335938 65.839844 C 152.296875 66.1875 152.25 66.539062 152.179688 66.894531 C 152.105469 67.25 151.96875 67.644531 151.855469 68.015625 C 151.3125 69.480469 150.378906 70.644531 149.335938 71.5625 C 148.285156 72.480469 147.101562 73.179688 145.839844 73.65625 C 144.574219 74.121094 143.230469 74.382812 141.863281 74.355469 C 140.503906 74.324219 139.101562 73.984375 137.921875 73.226562 C 136.597656 72.171875 137.960938 70.996094 138.894531 71.445312 C 140.703125 72.203125 142.847656 71.800781 144.640625 70.898438 C 146.425781 69.972656 147.949219 68.417969 148.402344 66.847656 C 148.433594 66.644531 148.496094 66.480469 148.527344 66.257812 C 148.558594 66.03125 148.578125 65.796875 148.589844 65.554688 C 148.613281 65.074219 148.59375 64.5625 148.550781 64.027344 C 148.484375 63.085938 148.351562 62.0625 148.273438 60.953125 C 148.175781 61.011719 148.082031 61.078125 147.976562 61.136719 C 147.441406 61.417969 146.820312 61.628906 146.144531 61.703125 C 145.816406 61.753906 145.46875 61.703125 145.132812 61.683594 C 144.796875 61.660156 144.496094 61.539062 144.179688 61.449219 C 143.015625 60.988281 142.121094 60.277344 141.457031 59.242188 C 140.804688 58.214844 140.621094 57.007812 140.691406 55.988281 Z M 154.972656 65.636719 C 155.027344 65.679688 155.085938 65.710938 155.140625 65.75 C 154.066406 69.632812 153.355469 73.609375 152.957031 77.644531 C 152.929688 78.320312 154.601562 78.773438 154.917969 78.171875 C 156.554688 74.589844 157.851562 70.925781 158.871094 67.191406 C 159.859375 67.335938 160.863281 67.34375 161.871094 67.210938 C 163.074219 67.03125 164.296875 66.664062 165.445312 65.945312 C 166.582031 65.242188 167.671875 64.085938 168.164062 62.597656 C 168.285156 62.230469 168.363281 61.855469 168.421875 61.480469 L 168.464844 60.917969 C 168.472656 60.722656 168.460938 60.402344 168.429688 60.183594 C 168.277344 59.253906 167.945312 58.613281 167.601562 58.035156 C 166.894531 56.910156 166.046875 56.066406 165.105469 55.324219 C 164.152344 54.601562 163.117188 53.984375 161.816406 53.636719 C 161.167969 53.476562 160.398438 53.367188 159.53125 53.640625 C 159.109375 53.769531 158.679688 54.035156 158.386719 54.371094 C 158.074219 54.703125 157.910156 55.082031 157.792969 55.429688 C 157.707031 55.871094 158.140625 56.132812 158.609375 56.25 C 157.445312 58.765625 156.472656 61.335938 155.664062 63.953125 C 155.121094 64.214844 154.4375 65.140625 154.972656 65.636719 Z M 164.253906 59.957031 C 164.421875 60.277344 164.511719 60.597656 164.511719 60.691406 C 164.507812 60.730469 164.503906 60.667969 164.503906 60.734375 C 164.492188 60.804688 164.488281 60.875 164.480469 60.945312 C 164.453125 61.078125 164.429688 61.210938 164.382812 61.332031 C 164.222656 61.824219 163.867188 62.296875 163.292969 62.734375 C 162.722656 63.171875 161.96875 63.527344 161.15625 63.78125 C 160.671875 63.929688 160.160156 64.042969 159.644531 64.121094 C 160.226562 61.597656 160.679688 59.039062 161.039062 56.453125 C 161.628906 56.816406 162.25 57.347656 162.789062 57.933594 C 163.378906 58.570312 163.921875 59.292969 164.253906 59.957031 Z M 329.988281 146.578125 C 329.894531 145.570312 329.652344 144.640625 329.273438 143.730469 C 328.878906 142.832031 328.371094 141.921875 327.421875 141.183594 C 326.957031 140.820312 326.316406 140.535156 325.652344 140.5 C 324.984375 140.453125 324.367188 140.648438 323.894531 140.914062 C 323.539062 141.136719 323.457031 141.457031 323.519531 141.753906 C 322.90625 141.714844 322.28125 141.789062 321.714844 141.964844 C 320.707031 142.265625 319.839844 142.796875 319.089844 143.40625 C 317.605469 144.648438 316.503906 146.191406 315.71875 147.921875 C 315.332031 148.792969 315.027344 149.714844 314.859375 150.722656 C 314.703125 151.722656 314.660156 152.835938 315.046875 154.046875 C 315.144531 154.351562 315.257812 154.652344 315.4375 154.949219 C 315.523438 155.097656 315.601562 155.25 315.703125 155.390625 C 315.8125 155.53125 315.925781 155.667969 316.039062 155.800781 C 316.257812 156.085938 316.554688 156.292969 316.835938 156.515625 C 317.117188 156.730469 317.433594 156.859375 317.738281 157.015625 C 319 157.535156 320.152344 157.5 321.171875 157.394531 C 321.425781 157.355469 321.671875 157.328125 321.933594 157.28125 C 322.207031 157.214844 322.484375 157.148438 322.75 157.070312 C 323.007812 156.976562 323.265625 156.882812 323.519531 156.78125 L 324.234375 156.425781 C 325.152344 155.914062 325.9375 155.277344 326.621094 154.578125 C 327.980469 153.171875 329.003906 151.535156 329.605469 149.660156 C 329.75 149.1875 329.867188 148.699219 329.945312 148.191406 C 330.039062 147.621094 330.027344 147.078125 329.988281 146.578125 Z M 326.324219 148.476562 C 325.792969 149.714844 324.917969 150.898438 323.929688 151.816406 C 323.429688 152.273438 322.894531 152.664062 322.359375 152.945312 L 321.957031 153.132812 L 321.558594 153.273438 L 321.171875 153.367188 L 320.707031 153.433594 C 320.09375 153.507812 319.535156 153.476562 319.25 153.359375 C 318.972656 153.234375 318.867188 153.148438 318.695312 152.785156 C 318.546875 152.425781 318.484375 151.832031 318.539062 151.203125 C 318.59375 150.566406 318.746094 149.886719 318.96875 149.214844 C 319.414062 147.875 320.136719 146.5625 321.054688 145.523438 C 321.988281 144.5 323.105469 143.796875 324.277344 143.996094 C 324.664062 144.042969 325.097656 143.757812 325.339844 143.34375 C 325.441406 143.167969 325.488281 142.972656 325.457031 142.773438 C 325.582031 142.832031 325.699219 142.914062 325.824219 143.066406 C 326.132812 143.421875 326.40625 144.035156 326.566406 144.6875 C 326.730469 145.339844 326.808594 146.050781 326.78125 146.699219 C 326.765625 147.019531 326.730469 147.3125 326.652344 147.554688 C 326.566406 147.859375 326.457031 148.167969 326.324219 148.476562 Z M 343.179688 147.183594 C 342.644531 146.175781 341.910156 145.277344 340.949219 144.570312 C 339.996094 143.867188 338.777344 143.351562 337.4375 143.316406 C 336.109375 143.28125 334.777344 143.726562 333.765625 144.523438 C 332.753906 145.308594 332.089844 146.296875 331.636719 147.242188 C 330.734375 149.15625 330.421875 151.023438 330.214844 152.839844 C 329.824219 156.460938 330.109375 160.003906 330.136719 163.355469 C 330.152344 164.257812 331.867188 164.609375 332.125 163.570312 C 332.472656 161.785156 332.652344 160.066406 332.878906 158.355469 C 332.941406 157.882812 333.003906 157.410156 333.070312 156.9375 C 333.535156 157.054688 334.011719 157.136719 334.484375 157.1875 C 335.457031 157.28125 336.445312 157.277344 337.425781 157.105469 C 338.40625 156.9375 339.382812 156.644531 340.328125 156.167969 C 341.265625 155.679688 342.175781 154.980469 342.878906 154.019531 C 343.054688 153.78125 343.226562 153.535156 343.351562 153.257812 C 343.480469 152.980469 343.640625 152.730469 343.722656 152.414062 C 343.929688 151.808594 344.027344 151.175781 344.03125 150.566406 C 344.039062 149.339844 343.707031 148.195312 343.179688 147.183594 Z M 340.15625 151.699219 C 340.125 151.828125 340.050781 151.941406 339.980469 152.058594 C 339.707031 152.53125 339.273438 152.992188 338.714844 153.375 C 338.152344 153.753906 337.488281 154.058594 336.785156 154.285156 C 336.082031 154.523438 335.324219 154.640625 334.570312 154.695312 C 334.183594 154.722656 333.796875 154.722656 333.414062 154.695312 C 333.488281 154.246094 333.570312 153.804688 333.660156 153.363281 C 333.984375 151.765625 334.421875 150.199219 335.070312 148.996094 C 335.394531 148.398438 335.777344 147.949219 336.144531 147.679688 C 336.332031 147.539062 336.515625 147.453125 336.714844 147.390625 C 336.820312 147.378906 336.917969 147.335938 337.019531 147.320312 C 337.121094 147.324219 337.21875 147.304688 337.320312 147.300781 C 337.722656 147.3125 338.183594 147.46875 338.632812 147.78125 C 339.082031 148.085938 339.492188 148.542969 339.792969 149.050781 C 340.09375 149.558594 340.28125 150.121094 340.320312 150.625 C 340.339844 150.878906 340.324219 151.121094 340.269531 151.339844 C 340.273438 151.457031 340.1875 151.574219 340.15625 151.699219 Z M 355.328125 154.597656 C 355.550781 153.40625 355.394531 152.179688 354.988281 151.105469 C 354.578125 150.027344 353.929688 149.074219 353.109375 148.289062 C 352.289062 147.507812 351.285156 146.890625 350.136719 146.546875 C 348.996094 146.199219 347.703125 146.167969 346.511719 146.503906 L 346.496094 146.507812 C 345.710938 146.734375 345.113281 147.433594 345.0625 148.292969 C 344.898438 150.996094 344.316406 153.847656 343.71875 156.707031 C 343.117188 159.574219 342.449219 162.480469 341.976562 165.464844 C 341.867188 166.386719 343.5625 166.796875 343.910156 165.972656 C 344.640625 164.050781 345.398438 162.125 346.113281 160.164062 C 346.867188 160.367188 347.660156 160.503906 348.5 160.5 C 349.511719 160.496094 350.59375 160.273438 351.578125 159.761719 C 352.566406 159.261719 353.417969 158.476562 354.027344 157.585938 C 354.171875 157.359375 354.324219 157.136719 354.453125 156.902344 C 354.574219 156.667969 354.699219 156.433594 354.808594 156.195312 L 355.097656 155.472656 C 355.183594 155.1875 355.257812 154.894531 355.328125 154.597656 Z M 351.445312 155.398438 L 351.246094 155.835938 C 350.957031 156.402344 350.570312 156.875 350.078125 157.238281 C 349.269531 157.855469 348.105469 158.121094 346.839844 158.09375 C 346.898438 157.925781 346.957031 157.765625 347.011719 157.597656 C 347.769531 155.265625 348.457031 152.875 348.824219 150.324219 C 348.890625 150.339844 348.957031 150.347656 349.023438 150.367188 C 349.515625 150.507812 350.019531 150.785156 350.453125 151.164062 C 351.332031 151.925781 351.878906 153.066406 351.800781 154.066406 C 351.777344 154.191406 351.761719 154.316406 351.75 154.445312 L 351.613281 154.933594 Z M 166.03125 191.210938 C 167.445312 190.265625 168.726562 189.21875 169.941406 188.097656 C 169.945312 188.09375 169.945312 188.09375 169.949219 188.089844 C 169.929688 188.191406 169.910156 188.292969 169.890625 188.394531 C 169.554688 190.179688 169.113281 192.074219 169.109375 194.082031 C 169.199219 195.621094 170.9375 195.429688 171.132812 194.234375 C 171.40625 192.554688 172.039062 190.886719 172.617188 189.101562 C 173.179688 187.320312 173.789062 185.371094 173.652344 183.105469 C 173.625 182.648438 173.410156 182.203125 173.023438 181.894531 C 172.558594 181.527344 171.953125 181.449219 171.429688 181.636719 C 171.28125 181.375 171.113281 181.121094 170.914062 180.878906 C 170.257812 180.089844 169.324219 179.511719 168.363281 179.222656 C 167.390625 178.925781 166.40625 178.890625 165.476562 178.984375 C 164.539062 179.082031 163.640625 179.316406 162.789062 179.644531 C 161.09375 180.316406 159.542969 181.347656 158.292969 182.796875 C 157.671875 183.527344 157.128906 184.371094 156.757812 185.339844 C 156.667969 185.585938 156.589844 185.839844 156.515625 186.089844 C 156.457031 186.347656 156.398438 186.617188 156.351562 186.871094 C 156.308594 187.335938 156.222656 187.757812 156.222656 188.257812 C 156.21875 188.503906 156.203125 188.734375 156.21875 188.996094 L 156.289062 189.792969 C 156.34375 190.082031 156.417969 190.382812 156.492188 190.671875 C 156.625 190.996094 156.734375 191.304688 156.9375 191.632812 C 157.332031 192.296875 158.046875 192.902344 158.824219 193.1875 C 159.570312 193.4375 160.304688 193.480469 160.867188 193.40625 C 162.042969 193.273438 162.921875 192.902344 163.753906 192.519531 C 164.574219 192.125 165.324219 191.6875 166.03125 191.210938 Z M 160.285156 189.535156 C 160.285156 189.535156 160.285156 189.53125 160.285156 189.53125 C 160.285156 189.53125 160.289062 189.527344 160.289062 189.527344 C 160.289062 189.527344 160.289062 189.53125 160.285156 189.535156 Z M 163.890625 187.90625 C 163.28125 188.292969 162.664062 188.636719 162.0625 188.917969 C 161.472656 189.195312 160.859375 189.402344 160.46875 189.441406 C 160.421875 189.445312 160.367188 189.460938 160.332031 189.457031 C 160.304688 189.453125 160.273438 189.449219 160.246094 189.453125 C 160.238281 189.453125 160.242188 189.453125 160.234375 189.453125 C 160.167969 189.273438 160.082031 188.816406 160.101562 188.339844 C 160.082031 188.050781 160.144531 187.695312 160.152344 187.375 L 160.207031 186.996094 L 160.308594 186.613281 C 160.472656 186.101562 160.75 185.578125 161.117188 185.082031 C 161.847656 184.085938 162.914062 183.210938 164.089844 182.609375 C 165.257812 182.015625 166.585938 181.664062 167.710938 181.839844 C 168.269531 181.929688 168.765625 182.140625 169.1875 182.5 C 169.40625 182.6875 169.605469 182.921875 169.773438 183.191406 C 169.570312 183.402344 169.355469 183.609375 169.140625 183.8125 C 168.605469 184.316406 168.042969 184.804688 167.46875 185.285156 C 166.316406 186.234375 165.117188 187.132812 163.890625 187.90625 Z M 184.773438 199.230469 C 184.761719 199.796875 186.414062 200.3125 186.71875 199.816406 C 188.308594 196.792969 189.351562 193.597656 190.160156 190.453125 C 190.96875 187.296875 191.539062 184.183594 192.253906 181 C 192.316406 180.535156 190.738281 179.789062 190.425781 180.175781 C 188.636719 182.707031 187.410156 185.570312 186.578125 188.457031 C 185.765625 187.933594 184.902344 187.542969 184 187.230469 C 182.714844 186.808594 181.347656 186.539062 179.84375 186.632812 C 179.09375 186.683594 178.300781 186.835938 177.5 187.1875 C 176.703125 187.535156 175.902344 188.132812 175.339844 188.925781 C 174.769531 189.71875 174.472656 190.640625 174.371094 191.476562 C 174.269531 192.324219 174.292969 193.0625 174.441406 193.921875 C 174.617188 194.769531 175.007812 195.757812 175.804688 196.535156 C 176.597656 197.324219 177.65625 197.710938 178.539062 197.808594 C 179.4375 197.914062 180.226562 197.8125 180.957031 197.652344 C 181.6875 197.488281 182.355469 197.253906 183 196.964844 C 183.746094 196.644531 184.492188 196.191406 185.160156 195.640625 C 185.007812 196.832031 184.886719 198.027344 184.773438 199.230469 Z M 184.304688 192.367188 C 183.558594 193.011719 182.742188 193.414062 181.757812 193.691406 C 180.785156 193.980469 179.726562 194.121094 179.097656 193.980469 C 178.78125 193.910156 178.660156 193.808594 178.59375 193.726562 C 178.527344 193.644531 178.425781 193.46875 178.351562 193.136719 C 178.292969 192.796875 178.261719 192.308594 178.292969 191.953125 C 178.324219 191.582031 178.410156 191.308594 178.53125 191.097656 C 178.652344 190.886719 178.832031 190.699219 179.125 190.519531 C 179.417969 190.339844 179.816406 190.191406 180.269531 190.09375 C 181.179688 189.902344 182.261719 189.894531 183.335938 190.023438 C 184.1875 190.128906 185.0625 190.316406 185.851562 190.605469 C 185.351562 191.285156 184.847656 191.902344 184.304688 192.367188 Z M 190.117188 204.652344 C 191.0625 203.320312 191.863281 201.574219 192.535156 199.828125 C 193.203125 198.070312 193.785156 196.21875 194 194.402344 C 194.089844 193.910156 195.8125 193.597656 195.996094 194.242188 C 196.246094 195.351562 196.300781 196.457031 196.273438 197.550781 C 196.238281 198.640625 196.109375 199.71875 195.886719 200.78125 C 195.433594 202.910156 194.734375 204.988281 193.355469 206.976562 C 192.648438 207.980469 191.664062 208.914062 190.480469 209.542969 C 189.296875 210.171875 187.871094 210.488281 186.453125 210.269531 C 186.101562 210.242188 185.753906 210.101562 185.414062 210.007812 C 185.078125 209.882812 184.75 209.71875 184.4375 209.546875 C 183.835938 209.152344 183.285156 208.671875 182.90625 208.089844 C 182.105469 206.9375 181.882812 205.601562 181.972656 204.4375 C 182.082031 203.613281 183.816406 203.769531 184 204.304688 C 184.210938 205.140625 184.617188 205.828125 185.121094 206.234375 C 185.617188 206.648438 186.191406 206.820312 186.796875 206.785156 C 188.011719 206.730469 189.222656 205.917969 190.117188 204.652344 Z M 194.40625 189.503906 C 194.464844 188.851562 194.847656 188.339844 195.511719 187.78125 C 195.640625 187.703125 197.386719 187.695312 197.511719 187.796875 C 198.167969 188.496094 198.425781 189.242188 198.375 189.851562 C 198.320312 190.472656 197.957031 190.957031 197.324219 191.53125 C 197.175781 191.625 195.449219 191.722656 195.296875 191.605469 C 194.613281 190.917969 194.34375 190.140625 194.40625 189.503906 Z M 125.457031 128.90625 C 124.632812 128.515625 123.804688 128.160156 122.972656 127.835938 C 123.257812 126.484375 123.433594 125.089844 123.429688 123.648438 C 123.414062 123.296875 123.417969 122.949219 123.378906 122.597656 L 123.332031 122.0625 C 123.304688 121.871094 123.28125 121.671875 123.242188 121.488281 C 123.097656 120.746094 122.890625 120.070312 122.636719 119.414062 C 122.128906 118.113281 121.460938 116.894531 120.574219 115.777344 C 119.683594 114.6875 118.550781 113.613281 116.9375 113.140625 C 116.136719 112.917969 115.246094 112.921875 114.464844 113.148438 C 113.675781 113.371094 113.011719 113.78125 112.457031 114.238281 C 112.300781 114.378906 112.191406 114.507812 112.105469 114.664062 C 112.011719 114.828125 111.960938 114.984375 111.949219 115.125 C 111.925781 115.402344 112.050781 115.597656 112.242188 115.730469 C 112.4375 115.863281 112.691406 115.945312 112.929688 115.984375 C 113.046875 116.003906 113.160156 116.011719 113.261719 116 C 113.375 115.984375 113.515625 115.933594 113.640625 115.855469 C 114.082031 115.582031 114.542969 115.394531 114.96875 115.335938 C 115.398438 115.277344 115.792969 115.332031 116.179688 115.492188 C 116.953125 115.816406 117.683594 116.582031 118.261719 117.476562 C 118.839844 118.375 119.296875 119.414062 119.605469 120.464844 C 119.757812 120.988281 119.871094 121.515625 119.925781 122.007812 C 119.980469 122.445312 119.964844 123.050781 119.945312 123.578125 C 119.878906 124.59375 119.703125 125.621094 119.449219 126.648438 C 117.941406 126.214844 116.425781 125.851562 114.894531 125.554688 C 113.398438 125.269531 111.8125 124.917969 110.214844 124.617188 C 110.246094 124.511719 110.273438 124.410156 110.304688 124.304688 C 111.023438 121.964844 111.828125 119.617188 112.664062 117.285156 C 113.195312 115.710938 111.628906 114.984375 110.804688 116.476562 C 109.65625 118.710938 108.570312 120.980469 107.589844 123.328125 C 107.480469 123.585938 107.382812 123.851562 107.277344 124.117188 C 106.285156 123.960938 105.285156 123.824219 104.277344 123.707031 C 103.652344 123.675781 103.144531 125.328125 103.6875 125.652344 C 104.535156 126.082031 105.394531 126.488281 106.257812 126.871094 C 106.253906 126.890625 106.246094 126.90625 106.238281 126.925781 C 105.828125 128.15625 105.472656 129.464844 105.289062 130.855469 C 105.113281 132.242188 105.085938 133.75 105.539062 135.300781 C 105.984375 136.851562 107.0625 138.347656 108.414062 139.261719 C 108.75 139.488281 109.085938 139.730469 109.449219 139.886719 C 109.816406 140.046875 110.140625 140.253906 110.558594 140.359375 C 110.960938 140.476562 111.34375 140.628906 111.785156 140.667969 C 112.21875 140.730469 112.648438 140.785156 113.097656 140.742188 C 113.996094 140.738281 114.863281 140.464844 115.652344 140.128906 C 116.414062 139.753906 117.109375 139.292969 117.675781 138.765625 C 118.839844 137.714844 119.675781 136.519531 120.347656 135.28125 C 120.6875 134.675781 120.992188 133.992188 121.230469 133.386719 C 121.472656 132.789062 121.699219 132.175781 121.917969 131.5625 C 122.027344 131.238281 122.136719 130.914062 122.242188 130.589844 C 123.128906 130.675781 124.015625 130.753906 124.898438 130.832031 C 125.402344 130.84375 125.933594 129.179688 125.457031 128.90625 Z M 118.296875 130.230469 C 118.078125 130.78125 117.855469 131.335938 117.617188 131.886719 C 117.378906 132.4375 117.164062 132.886719 116.890625 133.367188 C 116.363281 134.3125 115.71875 135.167969 115.023438 135.789062 C 114.679688 136.117188 114.316406 136.335938 113.96875 136.523438 C 113.613281 136.660156 113.273438 136.796875 112.917969 136.789062 C 112.742188 136.824219 112.554688 136.789062 112.367188 136.769531 C 112.183594 136.777344 111.984375 136.675781 111.785156 136.636719 C 111.589844 136.613281 111.378906 136.46875 111.175781 136.390625 C 110.953125 136.316406 110.785156 136.183594 110.597656 136.074219 C 109.878906 135.605469 109.386719 135 109.074219 134.167969 C 108.777344 133.332031 108.699219 132.292969 108.769531 131.207031 C 108.835938 130.199219 109.023438 129.148438 109.277344 128.082031 C 110.839844 128.644531 112.421875 129.144531 114.148438 129.472656 C 115.535156 129.742188 116.929688 129.949219 118.332031 130.132812 C 118.320312 130.164062 118.308594 130.195312 118.296875 130.230469 Z M 76.582031 237.121094 C 75.835938 235.6875 74.832031 234.664062 73.804688 233.761719 C 72.769531 232.867188 71.671875 232.121094 70.515625 231.464844 C 69.9375 231.140625 69.34375 230.835938 68.710938 230.5625 C 68.070312 230.285156 67.398438 230.054688 66.761719 229.871094 C 65.484375 229.503906 64.238281 229.28125 63.105469 229.035156 C 62.878906 228.988281 62.660156 228.9375 62.449219 228.886719 C 62.769531 228.601562 63.121094 228.3125 63.5 228.027344 C 65.203125 226.734375 67.257812 225.796875 69.320312 225.53125 C 70.34375 225.40625 71.355469 225.480469 72.21875 225.839844 C 73.082031 226.191406 73.796875 226.851562 74.3125 227.75 C 74.832031 228.746094 76.59375 228.464844 76.128906 226.90625 C 75.625 225.609375 74.644531 224.367188 73.328125 223.636719 C 72.023438 222.894531 70.542969 222.644531 69.15625 222.667969 C 66.371094 222.738281 63.769531 223.699219 61.507812 225.171875 C 60.964844 225.519531 60.425781 225.902344 59.875 226.351562 C 59.597656 226.582031 59.320312 226.828125 59.03125 227.152344 L 58.816406 227.402344 C 58.742188 227.492188 58.664062 227.609375 58.589844 227.710938 L 58.480469 227.875 L 58.367188 228.089844 C 58.296875 228.246094 58.226562 228.355469 58.167969 228.578125 C 58.050781 228.945312 57.96875 229.480469 58.113281 230.019531 C 58.234375 230.570312 58.554688 230.992188 58.820312 231.265625 C 59.378906 231.808594 59.8125 231.980469 60.207031 232.164062 C 60.96875 232.476562 61.605469 232.636719 62.226562 232.796875 C 63.457031 233.101562 64.59375 233.34375 65.640625 233.667969 C 66.167969 233.828125 66.644531 234 67.113281 234.207031 C 67.589844 234.421875 68.082031 234.671875 68.558594 234.941406 C 69.511719 235.480469 70.429688 236.101562 71.242188 236.777344 C 72.050781 237.449219 72.765625 238.207031 73.160156 238.921875 C 73.355469 239.277344 73.464844 239.601562 73.492188 239.867188 C 73.523438 240.136719 73.492188 240.367188 73.363281 240.652344 C 73.296875 240.792969 73.203125 240.941406 73.089844 241.09375 L 72.898438 241.328125 L 72.703125 241.523438 C 72.429688 241.769531 72.105469 241.972656 71.722656 242.125 C 70.957031 242.441406 69.960938 242.503906 68.953125 242.394531 C 67.941406 242.277344 66.902344 241.976562 65.917969 241.542969 C 64.933594 241.109375 64 240.535156 63.199219 239.839844 C 62.40625 239.144531 61.734375 238.3125 61.417969 237.402344 C 61.191406 236.820312 60.765625 236.476562 60.28125 236.449219 C 60.046875 236.445312 59.8125 236.546875 59.636719 236.792969 C 59.546875 236.914062 59.476562 237.074219 59.449219 237.261719 C 59.414062 237.453125 59.402344 237.675781 59.457031 237.917969 C 59.75 239.367188 60.535156 240.585938 61.4375 241.601562 C 62.355469 242.613281 63.429688 243.445312 64.601562 244.117188 C 65.773438 244.78125 67.050781 245.292969 68.425781 245.578125 C 69.800781 245.84375 71.308594 245.921875 72.847656 245.441406 C 73.609375 245.203125 74.367188 244.820312 75.027344 244.292969 C 75.1875 244.152344 75.347656 244.015625 75.503906 243.875 L 75.917969 243.429688 C 76.1875 243.109375 76.441406 242.757812 76.65625 242.363281 C 77.097656 241.574219 77.339844 240.574219 77.285156 239.632812 C 77.234375 238.6875 76.945312 237.839844 76.582031 237.121094 Z M 61.675781 229.722656 L 61.667969 229.726562 L 61.671875 229.71875 Z M 84.507812 240.402344 C 84.15625 244.511719 83.597656 248.84375 81.984375 252.90625 C 81.679688 253.582031 80.003906 253.144531 80.007812 252.449219 C 80.285156 248.351562 80.171875 244.285156 80.535156 240.066406 C 80.886719 235.878906 81.757812 231.457031 83.882812 227.59375 C 84.210938 227.054688 85.828125 227.703125 85.765625 228.28125 C 85 232.289062 84.855469 236.269531 84.507812 240.402344 Z M 85.535156 223.230469 C 85.222656 221.800781 85.242188 220.417969 85.640625 219.109375 C 86.039062 217.804688 86.820312 216.574219 87.972656 215.59375 C 88.167969 215.464844 89.757812 216.1875 89.804688 216.398438 C 89.902344 217.8125 89.820312 219.0625 89.453125 220.265625 C 89.09375 221.464844 88.457031 222.625 87.5 223.730469 C 87.300781 223.90625 85.625 223.484375 85.535156 223.230469 Z M 103.527344 244.882812 C 102.976562 248.597656 102.082031 252.203125 101.167969 255.738281 C 100.746094 257.28125 99.03125 257.054688 99.171875 255.375 C 99.609375 251.714844 100.089844 248.117188 100.320312 244.542969 C 100.433594 242.757812 100.484375 240.984375 100.390625 239.277344 C 100.339844 238.429688 100.246094 237.601562 100.082031 236.847656 C 99.925781 236.097656 99.667969 235.410156 99.390625 235.042969 C 99.328125 234.925781 99.253906 234.902344 99.203125 234.824219 C 99.136719 234.789062 99.097656 234.738281 99.042969 234.722656 C 98.972656 234.675781 98.773438 234.648438 98.6875 234.640625 C 98.582031 234.664062 98.464844 234.675781 98.28125 234.777344 C 98.097656 234.890625 97.875 235.039062 97.648438 235.277344 C 97.1875 235.730469 96.726562 236.367188 96.304688 237.0625 C 95.878906 237.757812 95.484375 238.515625 95.109375 239.296875 C 94.359375 240.859375 93.691406 242.523438 93.019531 244.210938 L 91.980469 246.78125 C 91.601562 247.664062 91.277344 248.5 90.636719 249.542969 L 90.609375 249.589844 C 90.109375 250.402344 89.046875 250.660156 88.234375 250.160156 C 87.597656 249.769531 87.304688 249.03125 87.445312 248.339844 C 88.414062 243.632812 89.425781 238.855469 90.90625 234.203125 C 91.371094 232.878906 93.054688 233.335938 92.851562 234.679688 C 92.816406 234.867188 92.792969 235.054688 92.761719 235.242188 C 92.808594 235.160156 92.851562 235.078125 92.898438 234.992188 C 93.429688 234.121094 94.03125 233.25 94.878906 232.417969 C 95.296875 232.003906 95.816406 231.601562 96.433594 231.269531 C 97.0625 230.933594 97.84375 230.714844 98.65625 230.695312 C 99.054688 230.71875 99.46875 230.742188 99.828125 230.859375 C 100.199219 230.9375 100.570312 231.105469 100.929688 231.296875 C 101.285156 231.484375 101.59375 231.746094 101.878906 232 C 102.125 232.265625 102.402344 232.546875 102.566406 232.832031 C 103.320312 233.984375 103.589844 235.101562 103.777344 236.140625 C 103.949219 237.1875 104.003906 238.191406 104.007812 239.175781 C 104 241.136719 103.804688 243.023438 103.527344 244.882812 Z M 214.253906 294.789062 C 213.714844 296.804688 212.917969 298.636719 212.363281 300.398438 C 212.183594 300.90625 211.707031 301.105469 211.230469 301.074219 C 210.765625 301.046875 210.320312 300.652344 210.371094 300.003906 C 210.625 297.933594 211.109375 296.042969 211.339844 294.207031 C 211.449219 293.3125 211.507812 292.394531 211.386719 291.757812 C 211.328125 291.441406 211.207031 291.257812 211.171875 291.257812 C 211.132812 291.257812 211.195312 291.289062 210.976562 291.265625 C 210.503906 291.21875 210.082031 291.355469 209.542969 291.722656 C 209.015625 292.089844 208.472656 292.671875 207.984375 293.335938 C 207.007812 294.675781 206.191406 296.359375 205.609375 297.976562 L 205.585938 298.046875 C 205.21875 299.074219 204.085938 299.609375 203.058594 299.242188 C 202.054688 298.882812 201.523438 297.789062 201.839844 296.78125 C 203.675781 291.007812 205.242188 284.972656 207.578125 279.140625 C 207.988281 278.21875 209.65625 278.738281 209.5 279.710938 C 208.941406 282.554688 208.4375 285.417969 207.882812 288.285156 C 208.054688 288.199219 208.230469 288.117188 208.410156 288.039062 C 208.714844 287.886719 209.085938 287.804688 209.4375 287.714844 C 210.15625 287.554688 210.9375 287.566406 211.660156 287.722656 C 212.015625 287.78125 212.472656 287.945312 212.878906 288.179688 C 213.289062 288.421875 213.675781 288.765625 213.945312 289.15625 C 214.496094 289.945312 214.644531 290.742188 214.695312 291.394531 C 214.765625 292.714844 214.511719 293.765625 214.253906 294.789062 Z M 227.769531 308.414062 C 227.695312 308.773438 227.558594 309.167969 227.449219 309.535156 C 226.902344 311 225.972656 312.164062 224.925781 313.085938 C 223.875 314 222.695312 314.703125 221.429688 315.179688 C 220.164062 315.644531 218.820312 315.90625 217.453125 315.875 C 216.09375 315.847656 214.691406 315.507812 213.511719 314.75 C 212.1875 313.691406 213.554688 312.515625 214.484375 312.96875 C 216.292969 313.722656 218.4375 313.324219 220.234375 312.417969 C 222.015625 311.492188 223.539062 309.9375 223.992188 308.367188 C 224.023438 308.167969 224.085938 308 224.117188 307.78125 C 224.148438 307.550781 224.167969 307.316406 224.179688 307.078125 C 224.203125 306.59375 224.179688 306.082031 224.144531 305.546875 C 224.074219 304.605469 223.9375 303.585938 223.863281 302.472656 C 223.765625 302.535156 223.671875 302.601562 223.566406 302.65625 C 223.03125 302.9375 222.410156 303.152344 221.734375 303.222656 C 221.40625 303.273438 221.058594 303.222656 220.722656 303.207031 C 220.386719 303.179688 220.085938 303.058594 219.773438 302.972656 C 218.605469 302.507812 217.710938 301.796875 217.046875 300.765625 C 216.394531 299.734375 216.210938 298.527344 216.285156 297.507812 C 216.449219 295.445312 217.269531 293.816406 218.070312 292.289062 C 218.671875 291.277344 220.242188 292.035156 219.902344 293.101562 C 219.371094 294.632812 218.929688 296.214844 219.023438 297.53125 C 219.070312 298.183594 219.261719 298.695312 219.566406 299.054688 C 219.851562 299.410156 220.386719 299.722656 220.792969 299.824219 C 221.1875 299.90625 221.433594 299.832031 221.847656 299.582031 C 222.242188 299.320312 222.691406 298.859375 223.078125 298.292969 C 223.859375 297.171875 224.519531 295.730469 224.917969 294.359375 C 225.21875 293.320312 226.308594 292.71875 227.347656 293.023438 C 228.246094 293.285156 228.816406 294.136719 228.757812 295.035156 L 228.753906 295.066406 C 228.660156 296.5 228.335938 297.730469 228.109375 298.824219 C 227.992188 299.371094 227.898438 299.882812 227.839844 300.367188 C 227.789062 300.835938 227.773438 301.320312 227.789062 301.851562 C 227.8125 302.902344 227.945312 304.074219 227.984375 305.355469 C 228.003906 305.996094 228 306.667969 227.929688 307.363281 C 227.886719 307.710938 227.839844 308.0625 227.769531 308.414062 Z M 244.054688 302.4375 C 244.0625 302.242188 244.050781 301.921875 244.019531 301.703125 C 243.871094 300.773438 243.535156 300.132812 243.191406 299.554688 C 242.484375 298.429688 241.636719 297.585938 240.695312 296.84375 C 239.742188 296.121094 238.707031 295.5 237.40625 295.15625 C 236.757812 294.996094 235.988281 294.886719 235.121094 295.160156 C 234.699219 295.289062 234.269531 295.554688 233.976562 295.894531 C 233.664062 296.222656 233.5 296.601562 233.382812 296.949219 C 233.296875 297.390625 233.730469 297.652344 234.199219 297.773438 C 233.035156 300.285156 232.0625 302.855469 231.253906 305.472656 C 230.710938 305.734375 230.027344 306.660156 230.5625 307.15625 C 230.617188 307.199219 230.675781 307.230469 230.730469 307.269531 C 229.65625 311.152344 228.945312 315.128906 228.546875 319.164062 C 228.519531 319.839844 230.1875 320.292969 230.503906 319.695312 C 232.144531 316.109375 233.441406 312.445312 234.460938 308.714844 C 235.445312 308.859375 236.453125 308.867188 237.460938 308.730469 C 238.664062 308.554688 239.886719 308.1875 241.035156 307.46875 C 242.171875 306.761719 243.261719 305.605469 243.75 304.117188 C 243.875 303.75 243.953125 303.375 244.011719 303 Z M 238.882812 304.253906 C 238.3125 304.6875 237.558594 305.042969 236.746094 305.300781 C 236.261719 305.449219 235.753906 305.5625 235.234375 305.640625 C 235.816406 303.113281 236.269531 300.558594 236.625 297.972656 C 237.21875 298.335938 237.839844 298.867188 238.378906 299.453125 C 238.96875 300.089844 239.511719 300.816406 239.84375 301.476562 C 240.007812 301.796875 240.097656 302.117188 240.097656 302.214844 C 240.097656 302.25 240.09375 302.191406 240.09375 302.253906 C 240.082031 302.324219 240.074219 302.394531 240.070312 302.464844 C 240.042969 302.597656 240.019531 302.730469 239.972656 302.851562 C 239.8125 303.339844 239.457031 303.816406 238.882812 304.253906 Z M 216.265625 246.148438 C 214.78125 247.390625 213.679688 248.933594 212.890625 250.664062 C 212.507812 251.535156 212.203125 252.457031 212.035156 253.460938 C 211.878906 254.464844 211.832031 255.574219 212.21875 256.789062 C 212.320312 257.09375 212.429688 257.390625 212.613281 257.691406 C 212.699219 257.839844 212.773438 257.988281 212.878906 258.132812 C 212.988281 258.269531 213.097656 258.410156 213.214844 258.542969 C 213.433594 258.828125 213.730469 259.03125 214.007812 259.253906 C 214.292969 259.46875 214.605469 259.601562 214.914062 259.757812 C 216.171875 260.273438 217.328125 260.242188 218.34375 260.132812 C 218.601562 260.097656 218.847656 260.070312 219.109375 260.023438 C 219.382812 259.957031 219.660156 259.890625 219.925781 259.8125 C 220.183594 259.71875 220.441406 259.621094 220.695312 259.519531 L 221.410156 259.167969 C 222.328125 258.65625 223.109375 258.019531 223.796875 257.320312 C 225.15625 255.910156 226.179688 254.277344 226.78125 252.402344 C 226.925781 251.925781 227.042969 251.441406 227.121094 250.933594 C 227.214844 250.363281 227.203125 249.820312 227.164062 249.320312 C 227.070312 248.3125 226.828125 247.378906 226.449219 246.46875 C 226.054688 245.574219 225.546875 244.664062 224.597656 243.921875 C 224.132812 243.5625 223.492188 243.277344 222.824219 243.238281 C 222.160156 243.195312 221.542969 243.390625 221.070312 243.65625 C 220.714844 243.875 220.632812 244.195312 220.695312 244.496094 C 220.078125 244.457031 219.457031 244.53125 218.890625 244.703125 C 217.882812 245.007812 217.015625 245.539062 216.265625 246.148438 Z M 221.453125 246.734375 C 221.839844 246.785156 222.277344 246.5 222.519531 246.082031 C 222.617188 245.910156 222.664062 245.710938 222.636719 245.511719 C 222.757812 245.570312 222.875 245.65625 223 245.804688 C 223.308594 246.160156 223.582031 246.773438 223.742188 247.425781 C 223.90625 248.078125 223.984375 248.789062 223.957031 249.4375 C 223.941406 249.761719 223.90625 250.054688 223.828125 250.292969 C 223.742188 250.597656 223.628906 250.90625 223.5 251.21875 C 222.96875 252.457031 222.09375 253.636719 221.101562 254.554688 C 220.605469 255.011719 220.070312 255.40625 219.53125 255.6875 L 219.128906 255.871094 L 218.734375 256.015625 L 218.347656 256.109375 L 217.882812 256.171875 C 217.269531 256.25 216.710938 256.21875 216.421875 256.097656 C 216.148438 255.976562 216.039062 255.886719 215.871094 255.523438 C 215.71875 255.167969 215.65625 254.574219 215.714844 253.941406 C 215.769531 253.308594 215.921875 252.625 216.140625 251.957031 C 216.589844 250.617188 217.308594 249.300781 218.226562 248.261719 C 219.164062 247.238281 220.28125 246.535156 221.453125 246.734375 Z M 234.601562 259.84375 C 235.582031 259.679688 236.558594 259.386719 237.503906 258.910156 C 238.441406 258.421875 239.351562 257.722656 240.054688 256.757812 C 240.230469 256.519531 240.402344 256.277344 240.527344 256 C 240.65625 255.71875 240.816406 255.46875 240.898438 255.15625 C 241.105469 254.550781 241.203125 253.917969 241.207031 253.308594 C 241.214844 252.078125 240.882812 250.933594 240.355469 249.925781 C 239.820312 248.914062 239.085938 248.015625 238.125 247.308594 C 237.171875 246.609375 235.949219 246.09375 234.613281 246.058594 C 233.285156 246.023438 231.953125 246.464844 230.941406 247.261719 C 229.929688 248.050781 229.265625 249.039062 228.808594 249.984375 C 227.910156 251.898438 227.59375 253.765625 227.386719 255.582031 C 227 259.203125 227.28125 262.742188 227.308594 266.097656 C 227.324219 267 229.039062 267.351562 229.300781 266.3125 C 229.644531 264.527344 229.824219 262.804688 230.054688 261.097656 C 230.113281 260.621094 230.179688 260.148438 230.242188 259.675781 C 230.710938 259.796875 231.183594 259.875 231.660156 259.925781 C 232.632812 260.023438 233.621094 260.019531 234.601562 259.84375 Z M 230.589844 257.433594 C 230.664062 256.988281 230.746094 256.542969 230.835938 256.105469 C 231.160156 254.507812 231.597656 252.9375 232.246094 251.738281 C 232.566406 251.136719 232.953125 250.6875 233.320312 250.421875 C 233.503906 250.28125 233.691406 250.195312 233.890625 250.132812 C 233.996094 250.121094 234.09375 250.078125 234.195312 250.0625 C 234.296875 250.066406 234.394531 250.046875 234.496094 250.042969 C 234.898438 250.054688 235.359375 250.210938 235.808594 250.519531 C 236.257812 250.828125 236.667969 251.285156 236.96875 251.792969 C 237.269531 252.300781 237.457031 252.859375 237.496094 253.367188 C 237.515625 253.621094 237.496094 253.859375 237.445312 254.082031 C 237.449219 254.199219 237.363281 254.316406 237.328125 254.441406 C 237.296875 254.570312 237.222656 254.683594 237.152344 254.800781 C 236.882812 255.273438 236.449219 255.730469 235.890625 256.117188 C 235.324219 256.492188 234.664062 256.800781 233.960938 257.027344 C 233.253906 257.265625 232.5 257.382812 231.746094 257.4375 C 231.359375 257.460938 230.972656 257.464844 230.589844 257.433594 Z M 239.152344 268.207031 C 239.042969 269.128906 240.738281 269.539062 241.085938 268.714844 C 241.816406 266.792969 242.574219 264.867188 243.289062 262.90625 C 244.042969 263.109375 244.839844 263.246094 245.675781 263.242188 C 246.6875 263.238281 247.769531 263.015625 248.753906 262.507812 C 249.742188 262.003906 250.59375 261.21875 251.203125 260.328125 C 251.347656 260.101562 251.5 259.878906 251.628906 259.644531 C 251.75 259.414062 251.875 259.175781 251.984375 258.9375 L 252.273438 258.214844 C 252.355469 257.925781 252.433594 257.636719 252.503906 257.339844 C 252.726562 256.148438 252.570312 254.921875 252.160156 253.847656 C 251.753906 252.769531 251.105469 251.816406 250.285156 251.03125 C 249.464844 250.25 248.460938 249.632812 247.3125 249.289062 C 246.171875 248.941406 244.875 248.910156 243.6875 249.246094 L 243.671875 249.25 C 242.886719 249.476562 242.289062 250.175781 242.238281 251.035156 C 242.074219 253.738281 241.488281 256.589844 240.894531 259.449219 C 240.292969 262.316406 239.625 265.222656 239.152344 268.207031 Z M 246.199219 253.109375 C 246.691406 253.25 247.195312 253.527344 247.628906 253.90625 C 248.507812 254.664062 249.054688 255.804688 248.976562 256.808594 C 248.953125 256.929688 248.9375 257.054688 248.925781 257.1875 L 248.789062 257.675781 L 248.621094 258.140625 L 248.421875 258.578125 C 248.128906 259.144531 247.746094 259.613281 247.253906 259.976562 C 246.445312 260.597656 245.277344 260.863281 244.015625 260.832031 C 244.070312 260.667969 244.132812 260.503906 244.1875 260.339844 C 244.945312 258.003906 245.628906 255.613281 246 253.066406 C 246.066406 253.078125 246.132812 253.089844 246.199219 253.109375 Z M 258.835938 286.621094 C 248.058594 284.507812 237.527344 281.449219 227.09375 278.332031 C 221.878906 276.773438 216.648438 275.195312 211.453125 273.472656 C 206.257812 271.746094 201.085938 269.902344 196.03125 267.707031 C 194.347656 266.921875 194.980469 265.3125 196.734375 265.800781 C 207.136719 268.859375 217.746094 271.359375 228.238281 274.507812 C 238.726562 277.652344 248.988281 281.316406 259.332031 284.679688 C 260.78125 285.183594 260.367188 286.878906 258.835938 286.621094 Z M 116.878906 244.050781 C 115.851562 247.230469 115.15625 250.519531 114.984375 253.824219 C 114.824219 257.113281 115.191406 260.457031 116.609375 263.433594 C 117.054688 264.421875 115.691406 265.503906 114.875 264.488281 C 112.621094 261.410156 111.640625 257.554688 111.484375 253.824219 C 111.332031 250.070312 111.945312 246.339844 113.089844 242.8125 C 114.25 239.285156 115.960938 235.941406 118.210938 232.976562 C 120.460938 230.03125 123.300781 227.398438 126.757812 225.871094 C 127.769531 225.476562 128.460938 227.085938 127.71875 227.628906 C 124.984375 229.515625 122.839844 232.144531 121.074219 234.964844 C 119.316406 237.800781 117.917969 240.875 116.878906 244.050781 Z M 157.113281 243.851562 C 157.179688 247.578125 156.320312 251.234375 154.972656 254.597656 C 153.617188 257.964844 151.761719 261.066406 149.621094 263.90625 C 147.476562 266.746094 145.039062 269.328125 142.367188 271.617188 C 141.433594 272.359375 140.226562 271.117188 140.910156 270.203125 C 143.03125 267.542969 144.980469 264.777344 146.738281 261.929688 C 148.488281 259.078125 150.054688 256.144531 151.277344 253.109375 C 152.496094 250.078125 153.378906 246.941406 153.628906 243.761719 C 153.886719 240.589844 153.457031 237.367188 152.179688 234.335938 C 151.863281 233.476562 153.332031 232.53125 153.941406 233.382812 C 155.976562 236.398438 157.066406 240.136719 157.113281 243.851562 Z M 145.089844 251.535156 C 144.269531 251.148438 143.441406 250.804688 142.605469 250.488281 C 142.921875 249.113281 143.160156 247.703125 143.265625 246.257812 C 143.316406 245.492188 143.339844 244.722656 143.300781 243.945312 C 143.277344 243.125 143.140625 242.304688 142.960938 241.550781 C 142.59375 240.023438 142.039062 238.582031 141.25 237.210938 C 140.851562 236.53125 140.386719 235.867188 139.8125 235.253906 C 139.234375 234.648438 138.539062 234.0625 137.628906 233.71875 C 137.1875 233.535156 136.683594 233.449219 136.191406 233.425781 C 135.695312 233.421875 135.203125 233.492188 134.765625 233.652344 C 133.875 233.953125 133.183594 234.476562 132.605469 235.023438 C 132.449219 235.191406 132.335938 235.34375 132.25 235.511719 C 132.160156 235.695312 132.113281 235.863281 132.101562 236.007812 C 132.085938 236.296875 132.214844 236.5 132.410156 236.625 C 132.609375 236.75 132.875 236.804688 133.132812 236.808594 C 133.261719 236.808594 133.386719 236.796875 133.5 236.761719 C 133.625 236.71875 133.78125 236.644531 133.917969 236.542969 C 134.402344 236.175781 134.917969 235.902344 135.386719 235.804688 C 135.859375 235.699219 136.257812 235.777344 136.65625 235.988281 C 137.46875 236.402344 138.199219 237.449219 138.71875 238.558594 C 139.246094 239.6875 139.617188 240.949219 139.820312 242.1875 C 139.921875 242.816406 139.972656 243.402344 139.949219 243.996094 C 139.941406 244.632812 139.875 245.273438 139.800781 245.917969 C 139.648438 247.066406 139.398438 248.210938 139.089844 249.359375 C 137.554688 248.941406 136.007812 248.605469 134.449219 248.332031 C 132.976562 248.085938 131.40625 247.742188 129.816406 247.453125 C 129.929688 247.074219 130.039062 246.695312 130.152344 246.320312 C 130.972656 243.652344 131.875 240.984375 132.796875 238.328125 C 133.386719 236.53125 131.804688 235.839844 130.921875 237.546875 C 129.6875 240.109375 128.511719 242.699219 127.433594 245.351562 C 127.21875 245.878906 127.011719 246.414062 126.808594 246.949219 C 125.828125 246.804688 124.84375 246.667969 123.847656 246.554688 C 123.222656 246.523438 122.714844 248.175781 123.261719 248.5 C 124.105469 248.925781 124.957031 249.328125 125.816406 249.707031 C 125.390625 250.980469 125 252.296875 124.71875 253.675781 C 124.425781 255.167969 124.234375 256.738281 124.402344 258.421875 C 124.472656 258.847656 124.511719 259.269531 124.621094 259.699219 C 124.753906 260.128906 124.828125 260.5625 125.039062 260.988281 L 125.324219 261.625 C 125.421875 261.835938 125.570312 262.03125 125.695312 262.230469 C 125.828125 262.429688 125.949219 262.636719 126.105469 262.820312 L 126.597656 263.351562 C 127.265625 264.050781 128.078125 264.566406 128.917969 264.957031 C 129.117188 265.070312 129.351562 265.144531 129.59375 265.214844 L 130.308594 265.425781 C 130.550781 265.484375 130.820312 265.496094 131.074219 265.523438 C 131.332031 265.539062 131.589844 265.589844 131.847656 265.550781 C 132.367188 265.507812 132.894531 265.457031 133.367188 265.285156 C 133.875 265.15625 134.300781 264.933594 134.734375 264.714844 C 135.152344 264.484375 135.523438 264.214844 135.886719 263.945312 C 136.214844 263.65625 136.574219 263.375 136.851562 263.0625 C 138.03125 261.835938 138.894531 260.496094 139.597656 259.117188 C 139.957031 258.433594 140.265625 257.714844 140.546875 257.003906 C 140.808594 256.328125 141.0625 255.648438 141.300781 254.957031 C 141.5 254.390625 141.683594 253.816406 141.863281 253.238281 C 142.757812 253.316406 143.648438 253.390625 144.539062 253.460938 C 145.039062 253.472656 145.574219 251.808594 145.089844 251.535156 Z M 137.675781 253.636719 C 137.433594 254.273438 137.175781 254.910156 136.914062 255.546875 C 136.660156 256.148438 136.398438 256.722656 136.089844 257.289062 C 135.5 258.417969 134.785156 259.460938 134.003906 260.273438 C 133.8125 260.496094 133.601562 260.636719 133.40625 260.824219 C 133.203125 260.96875 133 261.125 132.800781 261.230469 C 132.601562 261.328125 132.40625 261.449219 132.21875 261.480469 C 132.03125 261.570312 131.84375 261.5625 131.664062 261.59375 C 131.570312 261.625 131.476562 261.582031 131.382812 261.582031 C 131.289062 261.570312 131.195312 261.585938 131.097656 261.5625 C 130.996094 261.527344 130.894531 261.496094 130.792969 261.472656 C 130.691406 261.449219 130.589844 261.429688 130.480469 261.359375 C 130.042969 261.164062 129.632812 260.925781 129.320312 260.609375 C 128.675781 260 128.261719 259.097656 128.085938 257.964844 C 127.917969 256.835938 127.984375 255.558594 128.164062 254.269531 C 128.328125 253.171875 128.578125 252.046875 128.859375 250.910156 C 130.429688 251.46875 132.027344 251.964844 133.78125 252.261719 C 135.167969 252.5 136.566406 252.683594 137.96875 252.84375 C 137.875 253.109375 137.777344 253.371094 137.675781 253.636719 Z M 177.25 258.058594 C 178.425781 258.511719 179.574219 259.160156 180.542969 260.015625 C 180.808594 260.285156 179.976562 261.820312 179.652344 261.808594 C 177.457031 261.457031 175.398438 261.429688 173.125 261.089844 C 170.890625 260.761719 168.394531 260.105469 166.289062 258.621094 C 165.945312 258.339844 166.605469 256.738281 166.996094 256.714844 C 169.242188 256.851562 171.378906 256.796875 173.714844 257.144531 C 174.875 257.320312 176.074219 257.597656 177.25 258.058594 Z M 178.710938 268.875 C 175.835938 269.222656 173.132812 268.53125 170.796875 267.882812 C 169.632812 267.5625 168.378906 267.203125 167.121094 266.683594 C 165.871094 266.160156 164.578125 265.496094 163.480469 264.460938 C 163.121094 264.0625 164.152344 262.667969 164.527344 262.722656 C 166.78125 263.265625 169.242188 263.308594 171.867188 264.042969 C 174.480469 264.785156 176.640625 265.972656 178.902344 266.878906 C 179.207031 267.039062 179.128906 268.78125 178.710938 268.875 Z M 178.710938 268.875 " fill-opacity="1" fill-rule="nonzero"/></g></g></g></g></svg>