<svg xmlns="http://www.w3.org/2000/svg" xmlns:xlink="http://www.w3.org/1999/xlink" width="500" zoomAndPan="magnify" viewBox="0 0 375 374.999991" height="500" preserveAspectRatio="xMidYMid meet" version="1.0"><defs><clipPath id="67ae18a903"><path d="M 76.800781 110 L 165 110 L 165 140 L 76.800781 140 Z M 76.800781 110 " clip-rule="nonzero"/></clipPath><clipPath id="1d12bea3ab"><path d="M 77 158 L 298.050781 158 L 298.050781 280 L 77 280 Z M 77 158 " clip-rule="nonzero"/></clipPath></defs><path fill="#ffffff" d="M 214.59375 110.351562 L 181.0625 110.351562 L 165.90625 139.289062 L 197.597656 139.289062 Z M 214.59375 110.351562 " fill-opacity="1" fill-rule="nonzero"/><path fill="#ffffff" d="M 264.199219 110.351562 L 231.128906 110.351562 L 215.972656 139.289062 L 247.207031 139.289062 Z M 264.199219 110.351562 " fill-opacity="1" fill-rule="nonzero"/><path fill="#ffffff" d="M 296.8125 110.351562 L 279.359375 110.351562 L 266.039062 139.289062 L 296.8125 139.289062 Z M 296.8125 110.351562 " fill-opacity="1" fill-rule="nonzero"/><g clip-path="url(#67ae18a903)"><path fill="#ffffff" d="M 164.070312 110.8125 L 76.800781 110.8125 L 76.800781 139.289062 L 148.453125 139.289062 Z M 164.070312 110.8125 " fill-opacity="1" fill-rule="nonzero"/></g><g clip-path="url(#1d12bea3ab)"><path fill="#ffffff" d="M 77.257812 264.222656 C 77.257812 272.492188 84.609375 279.378906 93.792969 279.378906 L 281.65625 279.378906 C 290.839844 279.378906 298.191406 272.492188 298.191406 264.222656 L 298.191406 158.578125 L 77.71875 158.578125 C 77.257812 158.121094 77.257812 264.222656 77.257812 264.222656 Z M 159.476562 204.050781 C 159.476562 195.785156 165.90625 191.652344 174.175781 195.785156 L 209.082031 211.859375 C 217.351562 215.535156 217.351562 221.964844 209.082031 225.640625 L 174.175781 241.714844 C 165.90625 245.390625 159.476562 241.714844 159.476562 233.449219 Z M 159.476562 204.050781 " fill-opacity="1" fill-rule="nonzero"/></g></svg>