<svg xmlns="http://www.w3.org/2000/svg" xmlns:xlink="http://www.w3.org/1999/xlink" width="500" zoomAndPan="magnify" viewBox="0 0 375 374.999991" height="500" preserveAspectRatio="xMidYMid meet" version="1.0"><defs><g/><clipPath id="53052f5ce6"><path d="M 60.695312 140.011719 L 143.945312 140.011719 L 143.945312 241 L 60.695312 241 Z M 60.695312 140.011719 " clip-rule="nonzero"/></clipPath><clipPath id="28e490c374"><path d="M 72 140.011719 L 143.945312 140.011719 L 143.945312 212 L 72 212 Z M 72 140.011719 " clip-rule="nonzero"/></clipPath></defs><g clip-path="url(#53052f5ce6)"><path fill="#ffffff" d="M 136.785156 203.398438 C 135.828125 204.394531 134.804688 205.359375 133.738281 206.265625 C 126.535156 212.378906 117.378906 215.742188 107.964844 215.742188 C 85.976562 215.742188 68.085938 197.859375 68.085938 175.875 C 68.085938 166.445312 71.460938 157.289062 77.589844 150.085938 C 78.46875 149.042969 79.429688 148.023438 80.4375 147.058594 C 81.851562 145.703125 81.96875 143.476562 80.703125 141.984375 C 80.042969 141.207031 79.078125 140.730469 78.058594 140.679688 C 77.046875 140.625 76.035156 141 75.296875 141.703125 C 74.105469 142.84375 72.972656 144.054688 71.929688 145.289062 C 64.667969 153.820312 60.667969 164.683594 60.667969 175.875 C 60.667969 199.488281 78.070312 219.113281 100.730469 222.605469 L 100.730469 226.617188 L 96.242188 226.617188 C 95.988281 226.617188 95.742188 226.703125 95.542969 226.863281 L 87.722656 233.136719 C 87.457031 233.351562 87.304688 233.671875 87.304688 234.007812 L 87.304688 239.609375 C 87.304688 240.226562 87.804688 240.726562 88.421875 240.726562 L 127.511719 240.726562 C 128.128906 240.726562 128.628906 240.226562 128.628906 239.609375 L 128.628906 234.007812 C 128.628906 233.671875 128.476562 233.351562 128.210938 233.136719 L 120.390625 226.863281 C 120.191406 226.703125 119.945312 226.617188 119.691406 226.617188 L 115.203125 226.617188 L 115.203125 222.585938 C 123.757812 221.253906 131.859375 217.589844 138.542969 211.921875 C 139.796875 210.851562 141.007812 209.714844 142.136719 208.539062 C 142.839844 207.804688 143.214844 206.800781 143.164062 205.785156 C 143.109375 204.761719 142.632812 203.796875 141.855469 203.136719 C 140.371094 201.875 138.144531 201.984375 136.789062 203.394531 Z M 89.535156 238.496094 L 89.535156 235.125 L 126.394531 235.125 L 126.394531 238.496094 Z M 124.332031 232.894531 L 91.59375 232.894531 L 96.632812 228.851562 L 119.296875 228.851562 Z M 112.96875 226.617188 L 102.960938 226.617188 L 102.960938 222.894531 C 104.605469 223.070312 106.273438 223.160156 107.964844 223.160156 C 109.640625 223.160156 111.3125 223.0625 112.96875 222.882812 Z M 140.523438 206.992188 C 139.449219 208.113281 138.292969 209.199219 137.097656 210.21875 C 128.953125 217.125 118.605469 220.925781 107.964844 220.925781 C 83.117188 220.925781 62.902344 200.71875 62.902344 175.875 C 62.902344 165.214844 66.710938 154.867188 73.632812 146.734375 C 74.628906 145.554688 75.707031 144.40625 76.84375 143.316406 C 77.121094 143.050781 77.480469 142.90625 77.863281 142.90625 C 77.890625 142.90625 77.917969 142.90625 77.945312 142.910156 C 78.359375 142.929688 78.734375 143.117188 79 143.429688 C 79.503906 144.023438 79.457031 144.90625 78.894531 145.441406 C 77.828125 146.460938 76.816406 147.539062 75.886719 148.640625 C 69.417969 156.242188 65.855469 165.914062 65.855469 175.875 C 65.855469 199.089844 84.746094 217.976562 107.96875 217.976562 C 117.914062 217.976562 127.578125 214.421875 135.1875 207.96875 C 136.3125 207.011719 137.394531 205.996094 138.402344 204.945312 C 138.9375 204.382812 139.824219 204.339844 140.410156 204.839844 C 140.726562 205.109375 140.914062 205.484375 140.933594 205.898438 C 140.957031 206.308594 140.8125 206.699219 140.527344 206.992188 Z M 140.523438 206.992188 " fill-opacity="1" fill-rule="nonzero"/></g><g clip-path="url(#28e490c374)"><path fill="#ffffff" d="M 107.964844 211.5 C 127.609375 211.5 143.59375 195.515625 143.59375 175.871094 C 143.59375 156.226562 127.609375 140.242188 107.964844 140.242188 C 88.320312 140.242188 72.335938 156.226562 72.335938 175.871094 C 72.335938 195.515625 88.320312 211.5 107.964844 211.5 Z M 98.390625 207.859375 L 99.757812 205.089844 C 100.25 204.089844 100.046875 202.894531 99.25 202.113281 L 95.113281 198.058594 C 95.0625 198.007812 95.027344 197.945312 95.015625 197.878906 L 93.898438 192.015625 C 93.871094 191.878906 93.929688 191.78125 93.96875 191.738281 C 94.007812 191.691406 94.089844 191.613281 94.230469 191.613281 L 100.070312 191.613281 C 100.113281 191.613281 100.152344 191.621094 100.195312 191.636719 L 107.015625 194.347656 C 107.09375 194.378906 107.160156 194.441406 107.199219 194.519531 L 111.226562 203.128906 C 111.433594 203.570312 111.757812 203.9375 112.167969 204.203125 L 117.765625 207.792969 C 114.664062 208.746094 111.371094 209.265625 107.960938 209.265625 C 104.636719 209.265625 101.421875 208.769531 98.386719 207.859375 Z M 141.359375 175.871094 C 141.359375 179.695312 140.703125 183.371094 139.511719 186.796875 L 138.277344 186.296875 C 138.222656 186.273438 138.171875 186.234375 138.132812 186.1875 L 136.753906 184.34375 C 136.722656 184.300781 136.699219 184.246094 136.6875 184.191406 L 135.128906 174.367188 C 134.996094 173.523438 134.453125 172.800781 133.675781 172.4375 L 128.308594 169.925781 C 128.265625 169.90625 128.230469 169.878906 128.195312 169.84375 L 125.191406 166.433594 C 125.109375 166.339844 125.085938 166.207031 125.128906 166.089844 L 127.214844 160.585938 C 127.402344 160.085938 127.429688 159.546875 127.296875 159.03125 L 126.15625 154.636719 C 126.128906 154.535156 126.152344 154.429688 126.214844 154.347656 L 129.316406 150.21875 C 136.667969 156.347656 141.359375 165.570312 141.359375 175.871094 Z M 112.0625 142.738281 L 109.085938 144.265625 C 108.261719 144.6875 107.726562 145.519531 107.6875 146.445312 L 107.511719 150.304688 L 104.988281 158.621094 C 104.960938 158.710938 104.898438 158.789062 104.8125 158.828125 L 99.175781 161.519531 C 98.457031 161.863281 97.945312 162.507812 97.773438 163.28125 L 96.152344 170.546875 C 96.015625 171.15625 96.105469 171.796875 96.40625 172.34375 L 99.339844 177.695312 C 99.71875 178.382812 100.375 178.855469 101.144531 178.992188 L 105.667969 179.800781 C 105.742188 179.8125 105.816406 179.855469 105.867188 179.914062 L 109.21875 183.9375 C 109.277344 184.007812 109.304688 184.101562 109.292969 184.195312 L 109.113281 185.710938 C 109.09375 185.867188 108.992188 185.945312 108.929688 185.976562 C 108.871094 186.003906 108.75 186.046875 108.613281 185.96875 L 105.21875 184.085938 C 105.183594 184.0625 105.152344 184.039062 105.125 184.003906 L 103.210938 181.722656 C 102.71875 181.136719 102 180.800781 101.238281 180.800781 L 96.773438 180.800781 C 96.679688 180.800781 96.59375 180.765625 96.527344 180.699219 L 92.417969 176.433594 L 90.777344 173.78125 C 90.304688 173.015625 89.488281 172.558594 88.589844 172.558594 C 88.414062 172.558594 88.265625 172.421875 88.25 172.25 L 87.71875 166.054688 C 87.714844 166.015625 87.71875 165.980469 87.730469 165.941406 L 90.222656 156.429688 C 90.496094 155.386719 90.085938 154.273438 89.199219 153.660156 L 85.550781 151.140625 C 91.480469 145.761719 99.347656 142.476562 107.96875 142.476562 C 109.355469 142.476562 110.722656 142.570312 112.066406 142.738281 Z M 83.921875 152.730469 L 87.925781 155.496094 C 88.042969 155.578125 88.097656 155.726562 88.0625 155.863281 L 85.566406 165.371094 C 85.492188 165.65625 85.46875 165.953125 85.492188 166.246094 L 86.027344 172.441406 C 86.144531 173.78125 87.246094 174.792969 88.589844 174.792969 C 88.707031 174.792969 88.816406 174.851562 88.878906 174.953125 L 90.519531 177.609375 C 90.613281 177.765625 90.726562 177.910156 90.855469 178.042969 L 94.921875 182.25 C 95.402344 182.746094 96.078125 183.035156 96.773438 183.035156 L 101.238281 183.035156 C 101.339844 183.035156 101.433594 183.078125 101.5 183.15625 L 103.40625 185.433594 C 103.609375 185.679688 103.851562 185.878906 104.132812 186.035156 L 107.523438 187.921875 C 107.914062 188.136719 108.34375 188.246094 108.773438 188.246094 C 109.175781 188.246094 109.578125 188.152344 109.945312 187.964844 C 110.710938 187.574219 111.226562 186.828125 111.328125 185.976562 L 111.511719 184.457031 C 111.59375 183.757812 111.382812 183.042969 110.933594 182.507812 L 107.582031 178.484375 C 107.191406 178.019531 106.652344 177.707031 106.054688 177.601562 L 101.535156 176.792969 C 101.433594 176.773438 101.347656 176.710938 101.296875 176.621094 L 98.363281 171.269531 C 98.324219 171.199219 98.3125 171.113281 98.328125 171.03125 L 99.953125 163.769531 C 99.976562 163.664062 100.042969 163.582031 100.136719 163.535156 L 105.769531 160.84375 C 106.425781 160.53125 106.917969 159.957031 107.125 159.269531 L 109.648438 150.960938 C 109.710938 150.75 109.75 150.527344 109.757812 150.316406 L 109.917969 146.542969 C 109.925781 146.417969 109.996094 146.308594 110.101562 146.253906 L 115.644531 143.414062 C 115.660156 143.410156 115.667969 143.394531 115.679688 143.390625 C 120.023438 144.421875 124.046875 146.304688 127.554688 148.851562 L 124.429688 153.007812 C 123.957031 153.640625 123.800781 154.4375 123.996094 155.199219 L 125.136719 159.601562 C 125.152344 159.667969 125.152344 159.738281 125.125 159.804688 L 123.042969 165.300781 C 122.703125 166.195312 122.882812 167.195312 123.519531 167.914062 L 126.519531 171.324219 C 126.757812 171.589844 127.039062 171.804688 127.363281 171.957031 L 132.730469 174.464844 C 132.832031 174.515625 132.90625 174.609375 132.921875 174.722656 L 134.484375 184.546875 C 134.546875 184.957031 134.714844 185.351562 134.964844 185.6875 L 136.347656 187.53125 C 136.628906 187.902344 137.003906 188.195312 137.4375 188.371094 L 138.71875 188.890625 C 135.25 197.054688 128.621094 203.554688 120.375 206.867188 C 120.296875 206.804688 120.234375 206.726562 120.148438 206.671875 L 113.378906 202.328125 C 113.320312 202.292969 113.277344 202.246094 113.25 202.1875 L 109.222656 193.578125 C 108.941406 192.980469 108.453125 192.519531 107.84375 192.277344 L 101.019531 189.566406 C 100.714844 189.445312 100.398438 189.382812 100.070312 189.382812 L 94.230469 189.382812 C 93.460938 189.382812 92.738281 189.722656 92.246094 190.316406 C 91.757812 190.910156 91.558594 191.683594 91.703125 192.4375 L 92.820312 198.300781 C 92.917969 198.816406 93.171875 199.285156 93.546875 199.65625 L 97.6875 203.710938 C 97.792969 203.816406 97.816406 203.972656 97.753906 204.105469 L 96.253906 207.140625 C 83.601562 202.386719 74.570312 190.167969 74.570312 175.875 C 74.570312 166.894531 78.136719 158.742188 83.921875 152.734375 Z M 83.921875 152.730469 " fill-opacity="1" fill-rule="nonzero"/></g><g fill="#ffffff" fill-opacity="1"><g transform="translate(154.51432, 172.270924)"><g><path d="M 15.53125 0 L 5.9375 -16.921875 C 6.125 -15.285156 6.21875 -13.96875 6.21875 -12.96875 L 6.21875 0 L 2.140625 0 L 2.140625 -21.984375 L 7.390625 -21.984375 L 17.109375 -4.921875 C 16.921875 -6.484375 16.828125 -7.910156 16.828125 -9.203125 L 16.828125 -21.984375 L 20.921875 -21.984375 L 20.921875 0 Z M 15.53125 0 "/></g></g><g transform="translate(177.586846, 172.270924)"><g><path d="M 17.671875 0 L 15.734375 -5.609375 L 7.34375 -5.609375 L 5.390625 0 L 0.796875 0 L 8.8125 -21.984375 L 14.25 -21.984375 L 22.234375 0 Z M 11.53125 -18.59375 L 11.4375 -18.25 C 11.332031 -17.875 11.207031 -17.445312 11.0625 -16.96875 C 10.914062 -16.488281 10.019531 -13.859375 8.375 -9.078125 L 14.703125 -9.078125 L 12.53125 -15.40625 L 11.859375 -17.515625 Z M 11.53125 -18.59375 "/></g></g><g transform="translate(200.659372, 172.270924)"><g><path d="M 20.0625 -6.328125 C 20.0625 -4.179688 19.265625 -2.535156 17.671875 -1.390625 C 16.078125 -0.253906 13.734375 0.3125 10.640625 0.3125 C 7.816406 0.3125 5.601562 -0.1875 4 -1.1875 C 2.40625 -2.1875 1.378906 -3.695312 0.921875 -5.71875 L 5.359375 -6.453125 C 5.660156 -5.296875 6.25 -4.453125 7.125 -3.921875 C 8 -3.398438 9.210938 -3.140625 10.765625 -3.140625 C 13.984375 -3.140625 15.59375 -4.113281 15.59375 -6.0625 C 15.59375 -6.6875 15.40625 -7.203125 15.03125 -7.609375 C 14.664062 -8.015625 14.144531 -8.351562 13.46875 -8.625 C 12.800781 -8.894531 11.515625 -9.222656 9.609375 -9.609375 C 7.960938 -9.992188 6.816406 -10.300781 6.171875 -10.53125 C 5.535156 -10.769531 4.957031 -11.046875 4.4375 -11.359375 C 3.914062 -11.679688 3.472656 -12.066406 3.109375 -12.515625 C 2.742188 -12.960938 2.457031 -13.488281 2.25 -14.09375 C 2.050781 -14.695312 1.953125 -15.382812 1.953125 -16.15625 C 1.953125 -18.144531 2.695312 -19.664062 4.1875 -20.71875 C 5.675781 -21.78125 7.847656 -22.3125 10.703125 -22.3125 C 13.429688 -22.3125 15.476562 -21.882812 16.84375 -21.03125 C 18.207031 -20.175781 19.085938 -18.765625 19.484375 -16.796875 L 15.03125 -16.1875 C 14.800781 -17.132812 14.332031 -17.847656 13.625 -18.328125 C 12.925781 -18.804688 11.921875 -19.046875 10.609375 -19.046875 C 7.816406 -19.046875 6.421875 -18.171875 6.421875 -16.421875 C 6.421875 -15.859375 6.566406 -15.394531 6.859375 -15.03125 C 7.160156 -14.664062 7.601562 -14.351562 8.1875 -14.09375 C 8.769531 -13.84375 9.953125 -13.523438 11.734375 -13.140625 C 13.847656 -12.691406 15.359375 -12.273438 16.265625 -11.890625 C 17.171875 -11.515625 17.890625 -11.070312 18.421875 -10.5625 C 18.953125 -10.0625 19.359375 -9.457031 19.640625 -8.75 C 19.921875 -8.050781 20.0625 -7.242188 20.0625 -6.328125 Z M 20.0625 -6.328125 "/></g></g><g transform="translate(221.969088, 172.270924)"><g><path d="M 12.0625 -18.421875 L 12.0625 0 L 7.453125 0 L 7.453125 -18.421875 L 0.359375 -18.421875 L 0.359375 -21.984375 L 19.171875 -21.984375 L 19.171875 -18.421875 Z M 12.0625 -18.421875 "/></g></g><g transform="translate(241.484795, 172.270924)"><g><path d="M 17.671875 0 L 15.734375 -5.609375 L 7.34375 -5.609375 L 5.390625 0 L 0.796875 0 L 8.8125 -21.984375 L 14.25 -21.984375 L 22.234375 0 Z M 11.53125 -18.59375 L 11.4375 -18.25 C 11.332031 -17.875 11.207031 -17.445312 11.0625 -16.96875 C 10.914062 -16.488281 10.019531 -13.859375 8.375 -9.078125 L 14.703125 -9.078125 L 12.53125 -15.40625 L 11.859375 -17.515625 Z M 11.53125 -18.59375 "/></g></g><g transform="translate(264.557321, 172.270924)"><g><path d="M 13.015625 0 L 8.34375 0 L 0.21875 -21.984375 L 5.03125 -21.984375 L 9.546875 -7.859375 C 9.828125 -6.941406 10.210938 -5.5625 10.703125 -3.71875 L 11.03125 -5.0625 L 11.828125 -7.859375 L 16.328125 -21.984375 L 21.09375 -21.984375 Z M 13.015625 0 "/></g></g><g transform="translate(285.867037, 172.270924)"><g><path d="M 17.671875 0 L 15.734375 -5.609375 L 7.34375 -5.609375 L 5.390625 0 L 0.796875 0 L 8.8125 -21.984375 L 14.25 -21.984375 L 22.234375 0 Z M 11.53125 -18.59375 L 11.4375 -18.25 C 11.332031 -17.875 11.207031 -17.445312 11.0625 -16.96875 C 10.914062 -16.488281 10.019531 -13.859375 8.375 -9.078125 L 14.703125 -9.078125 L 12.53125 -15.40625 L 11.859375 -17.515625 Z M 11.53125 -18.59375 "/></g></g></g><g fill="#ffffff" fill-opacity="1"><g transform="translate(154.51432, 206.034706)"><g><path d="M 4.195312 -2.023438 L 4.195312 -19.675781 L 2.171875 -19.675781 L 2.171875 0 L 11.226562 0 L 11.226562 -2.023438 Z M 4.195312 -2.023438 "/></g></g></g><g fill="#ffffff" fill-opacity="1"><g transform="translate(165.534124, 206.034706)"><g><path d="M 13.859375 0 L 13.859375 -1.878906 L 4.195312 -1.878906 L 4.195312 -8.882812 L 13.570312 -8.882812 L 13.570312 -10.792969 L 4.195312 -10.792969 L 4.195312 -17.792969 L 13.859375 -17.792969 L 13.859375 -19.675781 L 2.171875 -19.675781 L 2.171875 0 Z M 13.859375 0 "/></g></g></g><g fill="#ffffff" fill-opacity="1"><g transform="translate(180.776931, 206.034706)"><g><path d="M 5.351562 -7.234375 L 8.941406 -16.289062 L 12.5 -7.234375 Z M 17.5625 0 L 8.941406 -21.035156 L 0.289062 0 L 2.488281 0 L 4.601562 -5.351562 L 13.25 -5.351562 L 15.363281 0 Z M 17.5625 0 "/></g></g></g><g fill="#ffffff" fill-opacity="1"><g transform="translate(197.841995, 206.034706)"><g><path d="M 4.195312 -9.722656 L 4.195312 -17.738281 L 8.765625 -17.738281 C 9.953125 -17.738281 10.90625 -17.359375 11.632812 -16.609375 C 12.324219 -15.855469 12.703125 -14.929688 12.703125 -13.773438 C 12.703125 -12.613281 12.324219 -11.660156 11.574219 -10.878906 C 10.820312 -10.097656 9.894531 -9.722656 8.765625 -9.722656 Z M 14.726562 -13.742188 C 14.726562 -15.421875 14.089844 -16.867188 12.875 -17.996094 C 11.6875 -19.097656 10.214844 -19.675781 8.476562 -19.675781 L 2.171875 -19.675781 L 2.171875 0 L 4.195312 0 L 4.195312 -7.785156 L 6.539062 -7.785156 L 12.324219 0 L 15.046875 0 L 8.96875 -7.785156 C 10.503906 -7.871094 11.804688 -8.417969 12.875 -9.433594 C 14.089844 -10.5625 14.726562 -12.007812 14.726562 -13.742188 Z M 14.726562 -13.742188 "/></g></g></g><g fill="#ffffff" fill-opacity="1"><g transform="translate(212.795557, 206.034706)"><g><path d="M 4.195312 -14.496094 L 15.25 1.214844 L 15.25 -19.675781 L 13.222656 -19.675781 L 13.222656 -5.207031 L 2.171875 -20.917969 L 2.171875 0 L 4.195312 0 Z M 4.195312 -14.496094 "/></g></g></g><g fill="#ffffff" fill-opacity="1"><g transform="translate(229.426752, 206.034706)"><g><path d="M 4.195312 0 L 4.195312 -19.675781 L 2.171875 -19.675781 L 2.171875 0 Z M 4.195312 0 "/></g></g></g><g fill="#ffffff" fill-opacity="1"><g transform="translate(235.008696, 206.034706)"><g><path d="M 4.195312 -14.496094 L 15.25 1.214844 L 15.25 -19.675781 L 13.222656 -19.675781 L 13.222656 -5.207031 L 2.171875 -20.917969 L 2.171875 0 L 4.195312 0 Z M 4.195312 -14.496094 "/></g></g></g><g fill="#ffffff" fill-opacity="1"><g transform="translate(251.639892, 206.034706)"><g><path d="M 21.585938 -9.199219 L 11.34375 -9.199219 L 11.34375 -7.4375 L 19.328125 -7.4375 C 18.71875 -5.730469 17.707031 -4.339844 16.261719 -3.328125 C 14.8125 -2.285156 13.195312 -1.792969 11.429688 -1.792969 C 9.171875 -1.792969 7.261719 -2.574219 5.671875 -4.167969 C 4.109375 -5.757812 3.328125 -7.695312 3.328125 -9.925781 C 3.328125 -12.152344 4.109375 -14.0625 5.699219 -15.652344 C 7.261719 -17.214844 9.171875 -18.027344 11.429688 -18.027344 C 13.105469 -18.027344 14.640625 -17.535156 16 -16.578125 C 17.390625 -15.625 18.375 -14.378906 19.007812 -12.789062 L 21.152344 -12.789062 C 20.484375 -14.957031 19.242188 -16.695312 17.445312 -18.027344 C 15.652344 -19.355469 13.570312 -20.050781 11.226562 -20.050781 C 9.953125 -20.050781 8.710938 -19.761719 7.492188 -19.242188 C 6.25 -18.71875 5.179688 -17.996094 4.253906 -17.070312 C 3.328125 -16.144531 2.605469 -15.074219 2.082031 -13.859375 C 1.5625 -12.613281 1.300781 -11.285156 1.300781 -9.894531 C 1.300781 -8.507812 1.5625 -7.175781 2.082031 -5.960938 C 2.605469 -4.714844 3.328125 -3.644531 4.253906 -2.71875 C 5.179688 -1.792969 6.25 -1.070312 7.492188 -0.550781 C 8.710938 -0.0273438 10.039062 0.230469 11.429688 0.230469 C 13.800781 0.230469 15.941406 -0.519531 17.851562 -2.054688 C 19.761719 -3.617188 20.949219 -5.585938 21.382812 -7.984375 Z M 21.585938 -9.199219 "/></g></g></g><g fill="#ffffff" fill-opacity="1"><g transform="translate(273.737876, 206.034706)"><g/></g></g><g fill="#ffffff" fill-opacity="1"><g transform="translate(280.766045, 206.034706)"><g><path d="M 7.609375 -9.980469 L 11.921875 -4.457031 C 11.632812 -4.167969 11.3125 -3.847656 10.964844 -3.53125 C 9.691406 -2.316406 8.507812 -1.734375 7.464844 -1.734375 C 6.480469 -1.734375 5.613281 -2.113281 4.917969 -2.894531 C 4.222656 -3.644531 3.878906 -4.515625 3.878906 -5.496094 C 3.878906 -6.308594 4.339844 -7.175781 5.292969 -8.128906 C 5.730469 -8.566406 6.480469 -9.171875 7.609375 -9.980469 Z M 7.4375 -13.195312 C 6.566406 -14.089844 6.164062 -14.929688 6.164062 -15.796875 C 6.164062 -16.636719 6.394531 -17.246094 6.886719 -17.648438 C 7.347656 -18.027344 7.898438 -18.199219 8.476562 -18.171875 C 9.054688 -18.140625 9.605469 -17.9375 10.097656 -17.535156 C 10.5625 -17.128906 10.820312 -16.550781 10.820312 -15.855469 C 10.820312 -15.132812 10.503906 -14.46875 9.894531 -13.859375 C 9.605469 -13.570312 9.316406 -13.339844 9 -13.105469 C 8.679688 -12.875 8.390625 -12.671875 8.101562 -12.46875 C 7.871094 -12.703125 7.667969 -12.960938 7.4375 -13.195312 Z M 17.214844 -7.667969 L 15.566406 -8.765625 L 14.46875 -7.378906 C 14.089844 -6.914062 13.714844 -6.453125 13.339844 -5.988281 L 9.289062 -11.167969 C 9.636719 -11.457031 10.039062 -11.746094 10.445312 -12.09375 C 11.949219 -13.339844 12.703125 -14.613281 12.703125 -15.882812 C 12.703125 -17.070312 12.296875 -18.054688 11.488281 -18.835938 C 10.707031 -19.589844 9.722656 -19.964844 8.507812 -19.964844 C 7.234375 -19.964844 6.191406 -19.558594 5.441406 -18.75 C 4.660156 -17.9375 4.28125 -16.925781 4.28125 -15.710938 C 4.28125 -14.496094 4.976562 -13.078125 6.367188 -11.488281 C 5.785156 -11.054688 5.207031 -10.648438 4.6875 -10.242188 C 2.804688 -8.882812 1.878906 -7.234375 1.878906 -5.351562 C 1.878906 -3.703125 2.402344 -2.34375 3.5 -1.246094 C 4.023438 -0.722656 4.628906 -0.347656 5.324219 -0.0585938 C 6.019531 0.230469 6.828125 0.347656 7.726562 0.347656 C 8.652344 0.347656 9.664062 0 10.851562 -0.753906 C 11.457031 -1.097656 12.210938 -1.765625 13.195312 -2.75 L 15.335938 0.0585938 L 17.996094 0 L 14.613281 -4.425781 C 16.058594 -6.164062 16.925781 -7.261719 17.214844 -7.667969 Z M 17.214844 -7.667969 "/></g></g></g><g fill="#ffffff" fill-opacity="1"><g transform="translate(299.932558, 206.034706)"><g/></g></g><g fill="#ffffff" fill-opacity="1"><g transform="translate(154.51432, 235.81239)"><g><path d="M 4.195312 -9.722656 L 4.195312 -17.738281 L 8.765625 -17.738281 C 9.953125 -17.738281 10.90625 -17.359375 11.632812 -16.609375 C 12.324219 -15.855469 12.703125 -14.929688 12.703125 -13.773438 C 12.703125 -12.613281 12.324219 -11.660156 11.574219 -10.878906 C 10.820312 -10.097656 9.894531 -9.722656 8.765625 -9.722656 Z M 14.726562 -13.742188 C 14.726562 -15.421875 14.089844 -16.867188 12.875 -17.996094 C 11.6875 -19.097656 10.214844 -19.675781 8.476562 -19.675781 L 2.171875 -19.675781 L 2.171875 0 L 4.195312 0 L 4.195312 -7.785156 L 6.539062 -7.785156 L 12.324219 0 L 15.046875 0 L 8.96875 -7.785156 C 10.503906 -7.871094 11.804688 -8.417969 12.875 -9.433594 C 14.089844 -10.5625 14.726562 -12.007812 14.726562 -13.742188 Z M 14.726562 -13.742188 "/></g></g></g><g fill="#ffffff" fill-opacity="1"><g transform="translate(169.467882, 235.81239)"><g><path d="M 13.859375 0 L 13.859375 -1.878906 L 4.195312 -1.878906 L 4.195312 -8.882812 L 13.570312 -8.882812 L 13.570312 -10.792969 L 4.195312 -10.792969 L 4.195312 -17.792969 L 13.859375 -17.792969 L 13.859375 -19.675781 L 2.171875 -19.675781 L 2.171875 0 Z M 13.859375 0 "/></g></g></g><g fill="#ffffff" fill-opacity="1"><g transform="translate(184.710689, 235.81239)"><g><path d="M 7.609375 -9.257812 C 10.15625 -8.652344 11.890625 -7.984375 12.816406 -7.234375 C 13.453125 -6.710938 13.773438 -6.046875 13.773438 -5.238281 C 13.773438 -4.425781 13.597656 -3.761719 13.25 -3.296875 C 12.382812 -2.082031 10.820312 -1.476562 8.621094 -1.476562 C 5.554688 -1.476562 3.820312 -2.515625 3.441406 -4.601562 L 1.070312 -4.601562 C 1.765625 -1.273438 4.28125 0.375 8.621094 0.375 C 10.5625 0.375 12.179688 -0.0273438 13.484375 -0.898438 C 15.046875 -1.910156 15.855469 -3.414062 15.855469 -5.382812 C 15.855469 -7.003906 15.21875 -8.246094 13.945312 -9.113281 C 13.050781 -9.75 11.601562 -10.328125 9.605469 -10.851562 C 7.582031 -11.371094 6.277344 -11.804688 5.671875 -12.125 C 4.339844 -12.789062 3.675781 -13.714844 3.703125 -14.929688 C 3.703125 -15.566406 3.820312 -16.117188 4.109375 -16.519531 C 4.859375 -17.648438 6.191406 -18.226562 8.101562 -18.226562 C 10.792969 -18.226562 12.324219 -17.359375 12.730469 -15.683594 L 14.929688 -15.683594 C 14.207031 -18.519531 11.921875 -19.964844 8.101562 -19.964844 C 6.367188 -19.964844 4.832031 -19.5 3.558594 -18.574219 C 2.257812 -17.648438 1.589844 -16.289062 1.589844 -14.4375 C 1.589844 -11.921875 3.617188 -10.183594 7.609375 -9.257812 Z M 7.609375 -9.257812 "/></g></g></g><g fill="#ffffff" fill-opacity="1"><g transform="translate(200.531987, 235.81239)"><g><path d="M 19.5 -9.894531 C 19.5 -7.636719 18.691406 -5.730469 17.128906 -4.167969 C 15.539062 -2.574219 13.628906 -1.792969 11.398438 -1.792969 C 9.171875 -1.792969 7.261719 -2.574219 5.699219 -4.167969 C 4.109375 -5.730469 3.328125 -7.636719 3.328125 -9.894531 C 3.328125 -12.09375 4.109375 -14.003906 5.699219 -15.59375 C 7.261719 -17.15625 9.171875 -17.96875 11.398438 -17.96875 C 13.628906 -17.96875 15.539062 -17.15625 17.128906 -15.59375 C 18.691406 -14.003906 19.5 -12.09375 19.5 -9.894531 Z M 21.527344 -9.894531 C 21.527344 -11.285156 21.238281 -12.585938 20.714844 -13.832031 C 20.195312 -15.046875 19.472656 -16.117188 18.546875 -17.042969 C 17.621094 -17.9375 16.550781 -18.664062 15.335938 -19.183594 C 14.089844 -19.703125 12.789062 -19.992188 11.398438 -19.992188 C 10.011719 -19.992188 8.679688 -19.703125 7.464844 -19.183594 C 6.25 -18.664062 5.179688 -17.9375 4.253906 -17.042969 C 3.328125 -16.117188 2.605469 -15.046875 2.082031 -13.832031 C 1.5625 -12.585938 1.300781 -11.285156 1.300781 -9.894531 C 1.300781 -8.507812 1.5625 -7.175781 2.082031 -5.960938 C 2.605469 -4.714844 3.328125 -3.644531 4.253906 -2.71875 C 5.179688 -1.792969 6.25 -1.070312 7.464844 -0.550781 C 8.679688 -0.0273438 10.011719 0.230469 11.398438 0.230469 C 12.789062 0.230469 14.089844 -0.0273438 15.335938 -0.550781 C 16.550781 -1.070312 17.621094 -1.792969 18.546875 -2.71875 C 19.472656 -3.644531 20.195312 -4.714844 20.714844 -5.960938 C 21.238281 -7.175781 21.527344 -8.507812 21.527344 -9.894531 Z M 21.527344 -9.894531 "/></g></g></g><g fill="#ffffff" fill-opacity="1"><g transform="translate(222.572115, 235.81239)"><g><path d="M 16.40625 -6.511719 L 16.40625 -19.675781 L 14.378906 -19.675781 L 14.378906 -6.222656 C 14.378906 -5.410156 14.234375 -4.746094 13.945312 -4.195312 C 13.105469 -2.574219 11.488281 -1.765625 9.085938 -1.765625 C 7.523438 -1.765625 6.277344 -2.113281 5.351562 -2.804688 C 4.28125 -3.585938 3.761719 -4.714844 3.761719 -6.222656 L 3.761719 -19.675781 L 1.734375 -19.675781 L 1.734375 -6.511719 C 1.734375 -4.367188 2.429688 -2.691406 3.820312 -1.476562 C 5.121094 -0.316406 6.886719 0.261719 9.085938 0.261719 C 11.253906 0.261719 12.992188 -0.316406 14.324219 -1.476562 C 15.710938 -2.691406 16.40625 -4.367188 16.40625 -6.511719 Z M 16.40625 -6.511719 "/></g></g></g><g fill="#ffffff" fill-opacity="1"><g transform="translate(239.926424, 235.81239)"><g><path d="M 4.195312 -9.722656 L 4.195312 -17.738281 L 8.765625 -17.738281 C 9.953125 -17.738281 10.90625 -17.359375 11.632812 -16.609375 C 12.324219 -15.855469 12.703125 -14.929688 12.703125 -13.773438 C 12.703125 -12.613281 12.324219 -11.660156 11.574219 -10.878906 C 10.820312 -10.097656 9.894531 -9.722656 8.765625 -9.722656 Z M 14.726562 -13.742188 C 14.726562 -15.421875 14.089844 -16.867188 12.875 -17.996094 C 11.6875 -19.097656 10.214844 -19.675781 8.476562 -19.675781 L 2.171875 -19.675781 L 2.171875 0 L 4.195312 0 L 4.195312 -7.785156 L 6.539062 -7.785156 L 12.324219 0 L 15.046875 0 L 8.96875 -7.785156 C 10.503906 -7.871094 11.804688 -8.417969 12.875 -9.433594 C 14.089844 -10.5625 14.726562 -12.007812 14.726562 -13.742188 Z M 14.726562 -13.742188 "/></g></g></g><g fill="#ffffff" fill-opacity="1"><g transform="translate(254.879986, 235.81239)"><g><path d="M 20.226562 -6.019531 L 17.996094 -6.019531 C 17.300781 -4.746094 16.347656 -3.703125 15.132812 -2.953125 C 13.917969 -2.171875 12.558594 -1.792969 11.109375 -1.792969 C 8.941406 -1.792969 7.089844 -2.574219 5.554688 -4.195312 C 4.050781 -5.730469 3.328125 -7.609375 3.328125 -9.808594 C 3.328125 -12.007812 4.050781 -13.886719 5.554688 -15.449219 C 6.25 -16.175781 7.089844 -16.753906 8.042969 -17.1875 C 8.96875 -17.621094 9.894531 -17.851562 10.820312 -17.851562 C 11.71875 -17.851562 12.5 -17.738281 13.195312 -17.535156 C 15.304688 -16.898438 16.898438 -15.625 17.96875 -13.6875 L 20.195312 -13.6875 C 19.445312 -15.539062 18.257812 -17.042969 16.609375 -18.199219 C 14.929688 -19.355469 13.105469 -19.933594 11.109375 -19.933594 C 8.363281 -19.933594 6.046875 -18.921875 4.136719 -16.925781 C 3.242188 -16 2.546875 -14.902344 2.054688 -13.6875 C 1.535156 -12.46875 1.300781 -11.167969 1.300781 -9.808594 C 1.300781 -7.03125 2.226562 -4.6875 4.136719 -2.71875 C 6.046875 -0.695312 8.363281 0.289062 11.109375 0.289062 C 13.105469 0.289062 14.929688 -0.289062 16.636719 -1.445312 C 18.285156 -2.605469 19.472656 -4.109375 20.226562 -6.019531 Z M 20.226562 -6.019531 "/></g></g></g><g fill="#ffffff" fill-opacity="1"><g transform="translate(275.184624, 235.81239)"><g><path d="M 13.859375 0 L 13.859375 -1.878906 L 4.195312 -1.878906 L 4.195312 -8.882812 L 13.570312 -8.882812 L 13.570312 -10.792969 L 4.195312 -10.792969 L 4.195312 -17.792969 L 13.859375 -17.792969 L 13.859375 -19.675781 L 2.171875 -19.675781 L 2.171875 0 Z M 13.859375 0 "/></g></g></g><g fill="#ffffff" fill-opacity="1"><g transform="translate(290.427431, 235.81239)"><g><path d="M 7.609375 -9.257812 C 10.15625 -8.652344 11.890625 -7.984375 12.816406 -7.234375 C 13.453125 -6.710938 13.773438 -6.046875 13.773438 -5.238281 C 13.773438 -4.425781 13.597656 -3.761719 13.25 -3.296875 C 12.382812 -2.082031 10.820312 -1.476562 8.621094 -1.476562 C 5.554688 -1.476562 3.820312 -2.515625 3.441406 -4.601562 L 1.070312 -4.601562 C 1.765625 -1.273438 4.28125 0.375 8.621094 0.375 C 10.5625 0.375 12.179688 -0.0273438 13.484375 -0.898438 C 15.046875 -1.910156 15.855469 -3.414062 15.855469 -5.382812 C 15.855469 -7.003906 15.21875 -8.246094 13.945312 -9.113281 C 13.050781 -9.75 11.601562 -10.328125 9.605469 -10.851562 C 7.582031 -11.371094 6.277344 -11.804688 5.671875 -12.125 C 4.339844 -12.789062 3.675781 -13.714844 3.703125 -14.929688 C 3.703125 -15.566406 3.820312 -16.117188 4.109375 -16.519531 C 4.859375 -17.648438 6.191406 -18.226562 8.101562 -18.226562 C 10.792969 -18.226562 12.324219 -17.359375 12.730469 -15.683594 L 14.929688 -15.683594 C 14.207031 -18.519531 11.921875 -19.964844 8.101562 -19.964844 C 6.367188 -19.964844 4.832031 -19.5 3.558594 -18.574219 C 2.257812 -17.648438 1.589844 -16.289062 1.589844 -14.4375 C 1.589844 -11.921875 3.617188 -10.183594 7.609375 -9.257812 Z M 7.609375 -9.257812 "/></g></g></g><g fill="#ffffff" fill-opacity="1"><g transform="translate(306.252562, 235.81239)"><g/></g></g></svg>